<mxfile host="app.diagrams.net" modified="2024-05-20T08:00:06.208Z" agent="Mozilla/5.0 (Windows NT 10.0; Win64; x64) AppleWebKit/537.36 (KHTML, like Gecko) Chrome/125.0.0.0 Safari/537.36 Edg/125.0.0.0" etag="xmi62EHHO_zOjz29gi4N" version="24.4.4" type="device">
  <diagram name="第 1 页" id="lfXEoLdGP4LViGJlwK80">
    <mxGraphModel dx="5074" dy="813" grid="1" gridSize="10" guides="1" tooltips="1" connect="1" arrows="1" fold="1" page="1" pageScale="1" pageWidth="3300" pageHeight="4681" math="0" shadow="0">
      <root>
        <mxCell id="0" />
        <mxCell id="1" parent="0" />
        <mxCell id="fWS9ggma_vgh0mWTJByZ-249" value="" style="rounded=0;whiteSpace=wrap;html=1;" vertex="1" parent="1">
          <mxGeometry x="2110" y="1930" width="350" height="120" as="geometry" />
        </mxCell>
        <mxCell id="fWS9ggma_vgh0mWTJByZ-144" value="" style="rounded=0;whiteSpace=wrap;html=1;" vertex="1" parent="1">
          <mxGeometry x="600" y="110" width="965" height="1210" as="geometry" />
        </mxCell>
        <mxCell id="fWS9ggma_vgh0mWTJByZ-30" value="" style="rounded=0;whiteSpace=wrap;html=1;" vertex="1" parent="1">
          <mxGeometry x="90" y="230" width="330" height="530" as="geometry" />
        </mxCell>
        <mxCell id="fWS9ggma_vgh0mWTJByZ-2" value="客户" style="shape=umlActor;verticalLabelPosition=bottom;verticalAlign=top;html=1;outlineConnect=0;" vertex="1" parent="1">
          <mxGeometry x="40" y="390" width="30" height="60" as="geometry" />
        </mxCell>
        <mxCell id="fWS9ggma_vgh0mWTJByZ-3" value="支付费用" style="ellipse;whiteSpace=wrap;html=1;" vertex="1" parent="1">
          <mxGeometry x="120" y="310" width="70" height="50" as="geometry" />
        </mxCell>
        <mxCell id="fWS9ggma_vgh0mWTJByZ-4" value="进入停车费" style="ellipse;whiteSpace=wrap;html=1;" vertex="1" parent="1">
          <mxGeometry x="140" y="380" width="70" height="50" as="geometry" />
        </mxCell>
        <mxCell id="fWS9ggma_vgh0mWTJByZ-5" value="离开停车费" style="ellipse;whiteSpace=wrap;html=1;" vertex="1" parent="1">
          <mxGeometry x="150" y="450" width="70" height="50" as="geometry" />
        </mxCell>
        <mxCell id="fWS9ggma_vgh0mWTJByZ-6" value="显示车位信息" style="ellipse;whiteSpace=wrap;html=1;" vertex="1" parent="1">
          <mxGeometry x="150" y="530" width="70" height="50" as="geometry" />
        </mxCell>
        <mxCell id="fWS9ggma_vgh0mWTJByZ-7" value="" style="endArrow=classic;html=1;rounded=0;exitX=0;exitY=0.5;exitDx=0;exitDy=0;entryX=1;entryY=0.3333333333333333;entryDx=0;entryDy=0;entryPerimeter=0;" edge="1" parent="1" source="fWS9ggma_vgh0mWTJByZ-6" target="fWS9ggma_vgh0mWTJByZ-2">
          <mxGeometry width="50" height="50" relative="1" as="geometry">
            <mxPoint x="50" y="580" as="sourcePoint" />
            <mxPoint x="100" y="530" as="targetPoint" />
          </mxGeometry>
        </mxCell>
        <mxCell id="fWS9ggma_vgh0mWTJByZ-8" value="车辆充电" style="ellipse;whiteSpace=wrap;html=1;" vertex="1" parent="1">
          <mxGeometry x="160" y="600" width="70" height="50" as="geometry" />
        </mxCell>
        <mxCell id="fWS9ggma_vgh0mWTJByZ-9" value="" style="endArrow=classic;html=1;rounded=0;exitX=1;exitY=0.3333333333333333;exitDx=0;exitDy=0;exitPerimeter=0;entryX=-0.014;entryY=0.356;entryDx=0;entryDy=0;entryPerimeter=0;" edge="1" parent="1" source="fWS9ggma_vgh0mWTJByZ-2" target="fWS9ggma_vgh0mWTJByZ-8">
          <mxGeometry width="50" height="50" relative="1" as="geometry">
            <mxPoint x="110" y="610" as="sourcePoint" />
            <mxPoint x="160" y="560" as="targetPoint" />
          </mxGeometry>
        </mxCell>
        <mxCell id="fWS9ggma_vgh0mWTJByZ-10" value="" style="endArrow=classic;html=1;rounded=0;exitX=1;exitY=0.5;exitDx=0;exitDy=0;entryX=0;entryY=0.5;entryDx=0;entryDy=0;dashed=1;" edge="1" parent="1" source="fWS9ggma_vgh0mWTJByZ-3" target="fWS9ggma_vgh0mWTJByZ-11">
          <mxGeometry width="50" height="50" relative="1" as="geometry">
            <mxPoint x="320" y="330" as="sourcePoint" />
            <mxPoint x="240" y="320" as="targetPoint" />
          </mxGeometry>
        </mxCell>
        <mxCell id="fWS9ggma_vgh0mWTJByZ-17" value="&amp;lt;&amp;lt;include&amp;gt;&amp;gt;" style="edgeLabel;html=1;align=center;verticalAlign=middle;resizable=0;points=[];" vertex="1" connectable="0" parent="fWS9ggma_vgh0mWTJByZ-10">
          <mxGeometry x="0.1024" y="3" relative="1" as="geometry">
            <mxPoint as="offset" />
          </mxGeometry>
        </mxCell>
        <mxCell id="fWS9ggma_vgh0mWTJByZ-11" value="支付停车费" style="ellipse;whiteSpace=wrap;html=1;" vertex="1" parent="1">
          <mxGeometry x="260" y="260" width="70" height="50" as="geometry" />
        </mxCell>
        <mxCell id="fWS9ggma_vgh0mWTJByZ-12" value="" style="endArrow=classic;html=1;rounded=0;entryX=1;entryY=0.5;entryDx=0;entryDy=0;dashed=1;exitX=0;exitY=0.5;exitDx=0;exitDy=0;" edge="1" parent="1" source="fWS9ggma_vgh0mWTJByZ-16" target="fWS9ggma_vgh0mWTJByZ-3">
          <mxGeometry width="50" height="50" relative="1" as="geometry">
            <mxPoint x="280" y="370" as="sourcePoint" />
            <mxPoint x="320" y="440" as="targetPoint" />
          </mxGeometry>
        </mxCell>
        <mxCell id="fWS9ggma_vgh0mWTJByZ-15" value="&amp;lt;&amp;lt;extend&amp;gt;&amp;gt;" style="edgeLabel;html=1;align=center;verticalAlign=middle;resizable=0;points=[];" vertex="1" connectable="0" parent="fWS9ggma_vgh0mWTJByZ-12">
          <mxGeometry x="0.0827" relative="1" as="geometry">
            <mxPoint as="offset" />
          </mxGeometry>
        </mxCell>
        <mxCell id="fWS9ggma_vgh0mWTJByZ-16" value="支付充电费" style="ellipse;whiteSpace=wrap;html=1;" vertex="1" parent="1">
          <mxGeometry x="260" y="340" width="70" height="50" as="geometry" />
        </mxCell>
        <mxCell id="fWS9ggma_vgh0mWTJByZ-19" value="" style="endArrow=classic;html=1;rounded=0;exitX=1;exitY=0.3333333333333333;exitDx=0;exitDy=0;exitPerimeter=0;entryX=0;entryY=0.5;entryDx=0;entryDy=0;" edge="1" parent="1" source="fWS9ggma_vgh0mWTJByZ-2" target="fWS9ggma_vgh0mWTJByZ-3">
          <mxGeometry width="50" height="50" relative="1" as="geometry">
            <mxPoint x="80" y="390" as="sourcePoint" />
            <mxPoint x="130" y="340" as="targetPoint" />
          </mxGeometry>
        </mxCell>
        <mxCell id="fWS9ggma_vgh0mWTJByZ-20" value="" style="endArrow=classic;html=1;rounded=0;exitX=1;exitY=0.3333333333333333;exitDx=0;exitDy=0;exitPerimeter=0;entryX=0;entryY=0.5;entryDx=0;entryDy=0;" edge="1" parent="1" source="fWS9ggma_vgh0mWTJByZ-2" target="fWS9ggma_vgh0mWTJByZ-4">
          <mxGeometry width="50" height="50" relative="1" as="geometry">
            <mxPoint x="30" y="600" as="sourcePoint" />
            <mxPoint x="80" y="550" as="targetPoint" />
          </mxGeometry>
        </mxCell>
        <mxCell id="fWS9ggma_vgh0mWTJByZ-21" value="" style="endArrow=classic;html=1;rounded=0;exitX=1;exitY=0.3333333333333333;exitDx=0;exitDy=0;exitPerimeter=0;entryX=0;entryY=0.5;entryDx=0;entryDy=0;" edge="1" parent="1" source="fWS9ggma_vgh0mWTJByZ-2" target="fWS9ggma_vgh0mWTJByZ-5">
          <mxGeometry width="50" height="50" relative="1" as="geometry">
            <mxPoint x="40" y="620" as="sourcePoint" />
            <mxPoint x="90" y="570" as="targetPoint" />
          </mxGeometry>
        </mxCell>
        <mxCell id="fWS9ggma_vgh0mWTJByZ-24" value="第三方支付平台" style="shape=umlActor;verticalLabelPosition=bottom;verticalAlign=top;html=1;outlineConnect=0;" vertex="1" parent="1">
          <mxGeometry x="450" y="375" width="30" height="60" as="geometry" />
        </mxCell>
        <mxCell id="fWS9ggma_vgh0mWTJByZ-27" value="" style="endArrow=none;html=1;rounded=0;exitX=1;exitY=0.5;exitDx=0;exitDy=0;entryX=0;entryY=0.3333333333333333;entryDx=0;entryDy=0;entryPerimeter=0;" edge="1" parent="1" source="fWS9ggma_vgh0mWTJByZ-11" target="fWS9ggma_vgh0mWTJByZ-24">
          <mxGeometry width="50" height="50" relative="1" as="geometry">
            <mxPoint x="360" y="530" as="sourcePoint" />
            <mxPoint x="410" y="480" as="targetPoint" />
          </mxGeometry>
        </mxCell>
        <mxCell id="fWS9ggma_vgh0mWTJByZ-28" value="显示停车缴费信息" style="ellipse;whiteSpace=wrap;html=1;" vertex="1" parent="1">
          <mxGeometry x="160" y="680" width="70" height="50" as="geometry" />
        </mxCell>
        <mxCell id="fWS9ggma_vgh0mWTJByZ-29" value="" style="endArrow=classic;html=1;rounded=0;exitX=-0.037;exitY=0.324;exitDx=0;exitDy=0;exitPerimeter=0;entryX=1;entryY=0.3333333333333333;entryDx=0;entryDy=0;entryPerimeter=0;" edge="1" parent="1" source="fWS9ggma_vgh0mWTJByZ-28" target="fWS9ggma_vgh0mWTJByZ-2">
          <mxGeometry width="50" height="50" relative="1" as="geometry">
            <mxPoint x="70" y="620" as="sourcePoint" />
            <mxPoint x="120" y="570" as="targetPoint" />
          </mxGeometry>
        </mxCell>
        <mxCell id="fWS9ggma_vgh0mWTJByZ-31" value="停车场管理系统系统" style="text;html=1;align=center;verticalAlign=middle;whiteSpace=wrap;rounded=0;" vertex="1" parent="1">
          <mxGeometry x="110" y="240" width="120" height="30" as="geometry" />
        </mxCell>
        <mxCell id="fWS9ggma_vgh0mWTJByZ-47" value="停车场工作人员" style="shape=umlActor;verticalLabelPosition=bottom;verticalAlign=top;html=1;outlineConnect=0;" vertex="1" parent="1">
          <mxGeometry x="450" y="560" width="30" height="60" as="geometry" />
        </mxCell>
        <mxCell id="fWS9ggma_vgh0mWTJByZ-52" value="收取停车费" style="ellipse;whiteSpace=wrap;html=1;" vertex="1" parent="1">
          <mxGeometry x="290" y="560" width="70" height="50" as="geometry" />
        </mxCell>
        <mxCell id="fWS9ggma_vgh0mWTJByZ-53" value="" style="endArrow=classic;html=1;rounded=0;exitX=0;exitY=0.3333333333333333;exitDx=0;exitDy=0;exitPerimeter=0;entryX=1;entryY=0.5;entryDx=0;entryDy=0;" edge="1" parent="1" source="fWS9ggma_vgh0mWTJByZ-47" target="fWS9ggma_vgh0mWTJByZ-52">
          <mxGeometry width="50" height="50" relative="1" as="geometry">
            <mxPoint x="490" y="510" as="sourcePoint" />
            <mxPoint x="540" y="460" as="targetPoint" />
          </mxGeometry>
        </mxCell>
        <mxCell id="fWS9ggma_vgh0mWTJByZ-57" value="" style="ellipse;html=1;shape=endState;fillColor=#000000;strokeColor=#ff0000;" vertex="1" parent="1">
          <mxGeometry x="630" y="1266" width="30" height="30" as="geometry" />
        </mxCell>
        <mxCell id="fWS9ggma_vgh0mWTJByZ-58" value="" style="ellipse;whiteSpace=wrap;html=1;aspect=fixed;strokeColor=default;gradientColor=none;fillColor=#000000;" vertex="1" parent="1">
          <mxGeometry x="660" y="220" width="20" height="20" as="geometry" />
        </mxCell>
        <mxCell id="fWS9ggma_vgh0mWTJByZ-59" value="&lt;font style=&quot;font-size: 18px;&quot;&gt;客户&lt;/font&gt;" style="text;html=1;align=center;verticalAlign=middle;whiteSpace=wrap;rounded=0;" vertex="1" parent="1">
          <mxGeometry x="755" y="150" width="60" height="30" as="geometry" />
        </mxCell>
        <mxCell id="fWS9ggma_vgh0mWTJByZ-60" value="" style="endArrow=classic;html=1;rounded=0;exitX=1;exitY=0.5;exitDx=0;exitDy=0;entryX=0;entryY=0.5;entryDx=0;entryDy=0;" edge="1" parent="1" source="fWS9ggma_vgh0mWTJByZ-58" target="fWS9ggma_vgh0mWTJByZ-61">
          <mxGeometry width="50" height="50" relative="1" as="geometry">
            <mxPoint x="730" y="290" as="sourcePoint" />
            <mxPoint x="750" y="230" as="targetPoint" />
          </mxGeometry>
        </mxCell>
        <mxCell id="fWS9ggma_vgh0mWTJByZ-61" value="&lt;font style=&quot;font-size: 18px;&quot;&gt;选择入口&lt;/font&gt;" style="rounded=1;whiteSpace=wrap;html=1;" vertex="1" parent="1">
          <mxGeometry x="740" y="210" width="90" height="40" as="geometry" />
        </mxCell>
        <mxCell id="fWS9ggma_vgh0mWTJByZ-65" value="" style="endArrow=classic;html=1;rounded=0;exitX=1;exitY=0.5;exitDx=0;exitDy=0;entryX=0;entryY=0.5;entryDx=0;entryDy=0;" edge="1" parent="1" source="fWS9ggma_vgh0mWTJByZ-61" target="fWS9ggma_vgh0mWTJByZ-67">
          <mxGeometry width="50" height="50" relative="1" as="geometry">
            <mxPoint x="930" y="340" as="sourcePoint" />
            <mxPoint x="900" y="230" as="targetPoint" />
          </mxGeometry>
        </mxCell>
        <mxCell id="fWS9ggma_vgh0mWTJByZ-66" value="&lt;font style=&quot;font-size: 18px;&quot;&gt;停车场管理系统&lt;/font&gt;" style="text;html=1;align=center;verticalAlign=middle;whiteSpace=wrap;rounded=0;" vertex="1" parent="1">
          <mxGeometry x="950" y="150" width="80" height="30" as="geometry" />
        </mxCell>
        <mxCell id="fWS9ggma_vgh0mWTJByZ-67" value="&lt;font style=&quot;font-size: 18px;&quot;&gt;识别车辆信息&lt;/font&gt;" style="rounded=1;whiteSpace=wrap;html=1;" vertex="1" parent="1">
          <mxGeometry x="945" y="210" width="90" height="40" as="geometry" />
        </mxCell>
        <mxCell id="fWS9ggma_vgh0mWTJByZ-68" value="" style="endArrow=classic;html=1;rounded=0;exitX=0.5;exitY=1;exitDx=0;exitDy=0;entryX=0.5;entryY=0;entryDx=0;entryDy=0;" edge="1" parent="1" source="fWS9ggma_vgh0mWTJByZ-67" target="fWS9ggma_vgh0mWTJByZ-70">
          <mxGeometry width="50" height="50" relative="1" as="geometry">
            <mxPoint x="960" y="390" as="sourcePoint" />
            <mxPoint x="990" y="280" as="targetPoint" />
          </mxGeometry>
        </mxCell>
        <mxCell id="fWS9ggma_vgh0mWTJByZ-70" value="&lt;font style=&quot;font-size: 18px;&quot;&gt;提供停车场是否满信息&lt;/font&gt;" style="rounded=1;whiteSpace=wrap;html=1;" vertex="1" parent="1">
          <mxGeometry x="942.5" y="290" width="95" height="40" as="geometry" />
        </mxCell>
        <mxCell id="fWS9ggma_vgh0mWTJByZ-71" value="" style="rhombus;whiteSpace=wrap;html=1;" vertex="1" parent="1">
          <mxGeometry x="962.5" y="350" width="55" height="50" as="geometry" />
        </mxCell>
        <mxCell id="fWS9ggma_vgh0mWTJByZ-72" value="" style="endArrow=classic;html=1;rounded=0;exitX=0.5;exitY=1;exitDx=0;exitDy=0;entryX=0.5;entryY=0;entryDx=0;entryDy=0;" edge="1" parent="1" source="fWS9ggma_vgh0mWTJByZ-70" target="fWS9ggma_vgh0mWTJByZ-71">
          <mxGeometry width="50" height="50" relative="1" as="geometry">
            <mxPoint x="870" y="500" as="sourcePoint" />
            <mxPoint x="920" y="450" as="targetPoint" />
          </mxGeometry>
        </mxCell>
        <mxCell id="fWS9ggma_vgh0mWTJByZ-73" value="" style="endArrow=classic;html=1;rounded=0;exitX=0;exitY=0.5;exitDx=0;exitDy=0;entryX=1;entryY=0.5;entryDx=0;entryDy=0;entryPerimeter=0;" edge="1" parent="1" source="fWS9ggma_vgh0mWTJByZ-71" target="fWS9ggma_vgh0mWTJByZ-75">
          <mxGeometry width="50" height="50" relative="1" as="geometry">
            <mxPoint x="730" y="450" as="sourcePoint" />
            <mxPoint x="830" y="375" as="targetPoint" />
          </mxGeometry>
        </mxCell>
        <mxCell id="fWS9ggma_vgh0mWTJByZ-74" value="Y" style="edgeLabel;html=1;align=center;verticalAlign=middle;resizable=0;points=[];" vertex="1" connectable="0" parent="fWS9ggma_vgh0mWTJByZ-73">
          <mxGeometry x="-0.1703" y="1" relative="1" as="geometry">
            <mxPoint as="offset" />
          </mxGeometry>
        </mxCell>
        <mxCell id="fWS9ggma_vgh0mWTJByZ-89" value="停车场停满" style="edgeLabel;html=1;align=center;verticalAlign=middle;resizable=0;points=[];" vertex="1" connectable="0" parent="fWS9ggma_vgh0mWTJByZ-73">
          <mxGeometry x="-0.2413" relative="1" as="geometry">
            <mxPoint as="offset" />
          </mxGeometry>
        </mxCell>
        <mxCell id="fWS9ggma_vgh0mWTJByZ-75" value="&lt;font style=&quot;font-size: 18px;&quot;&gt;离开停车场&lt;/font&gt;" style="rounded=1;whiteSpace=wrap;html=1;" vertex="1" parent="1">
          <mxGeometry x="740" y="355" width="90" height="40" as="geometry" />
        </mxCell>
        <mxCell id="fWS9ggma_vgh0mWTJByZ-76" value="" style="endArrow=classic;html=1;rounded=0;exitX=0.5;exitY=1;exitDx=0;exitDy=0;edgeStyle=orthogonalEdgeStyle;entryX=0.5;entryY=0;entryDx=0;entryDy=0;" edge="1" parent="1" source="fWS9ggma_vgh0mWTJByZ-71" target="fWS9ggma_vgh0mWTJByZ-78">
          <mxGeometry width="50" height="50" relative="1" as="geometry">
            <mxPoint x="1000" y="540" as="sourcePoint" />
            <mxPoint x="770" y="420" as="targetPoint" />
          </mxGeometry>
        </mxCell>
        <mxCell id="fWS9ggma_vgh0mWTJByZ-78" value="&lt;font style=&quot;font-size: 18px;&quot;&gt;进入停车场&lt;/font&gt;" style="rounded=1;whiteSpace=wrap;html=1;" vertex="1" parent="1">
          <mxGeometry x="740" y="420" width="90" height="40" as="geometry" />
        </mxCell>
        <mxCell id="fWS9ggma_vgh0mWTJByZ-80" value="" style="endArrow=classic;html=1;rounded=0;exitX=1;exitY=0.5;exitDx=0;exitDy=0;entryX=0;entryY=0.5;entryDx=0;entryDy=0;" edge="1" parent="1" source="fWS9ggma_vgh0mWTJByZ-78" target="fWS9ggma_vgh0mWTJByZ-81">
          <mxGeometry width="50" height="50" relative="1" as="geometry">
            <mxPoint x="840" y="440" as="sourcePoint" />
            <mxPoint x="960" y="440" as="targetPoint" />
          </mxGeometry>
        </mxCell>
        <mxCell id="fWS9ggma_vgh0mWTJByZ-81" value="&lt;font style=&quot;font-size: 18px;&quot;&gt;记录进入时间&lt;/font&gt;" style="rounded=1;whiteSpace=wrap;html=1;" vertex="1" parent="1">
          <mxGeometry x="947.5" y="420" width="90" height="40" as="geometry" />
        </mxCell>
        <mxCell id="fWS9ggma_vgh0mWTJByZ-82" value="" style="endArrow=classic;html=1;rounded=0;edgeStyle=orthogonalEdgeStyle;entryX=0.5;entryY=0;entryDx=0;entryDy=0;exitX=0.5;exitY=1;exitDx=0;exitDy=0;" edge="1" parent="1" source="fWS9ggma_vgh0mWTJByZ-85" target="fWS9ggma_vgh0mWTJByZ-84">
          <mxGeometry width="50" height="50" relative="1" as="geometry">
            <mxPoint x="992" y="550" as="sourcePoint" />
            <mxPoint x="780" y="550" as="targetPoint" />
            <Array as="points">
              <mxPoint x="992" y="530" />
              <mxPoint x="992" y="560" />
              <mxPoint x="785" y="560" />
            </Array>
          </mxGeometry>
        </mxCell>
        <mxCell id="fWS9ggma_vgh0mWTJByZ-84" value="&lt;font style=&quot;font-size: 18px;&quot;&gt;选择楼层&lt;/font&gt;" style="rounded=1;whiteSpace=wrap;html=1;" vertex="1" parent="1">
          <mxGeometry x="740" y="580" width="90" height="40" as="geometry" />
        </mxCell>
        <mxCell id="fWS9ggma_vgh0mWTJByZ-85" value="&lt;font style=&quot;font-size: 18px;&quot;&gt;提供楼层车位信息&lt;/font&gt;" style="rounded=1;whiteSpace=wrap;html=1;" vertex="1" parent="1">
          <mxGeometry x="947.5" y="490" width="90" height="40" as="geometry" />
        </mxCell>
        <mxCell id="fWS9ggma_vgh0mWTJByZ-86" value="" style="endArrow=classic;html=1;rounded=0;exitX=0.5;exitY=1;exitDx=0;exitDy=0;entryX=0.5;entryY=0;entryDx=0;entryDy=0;" edge="1" parent="1" source="fWS9ggma_vgh0mWTJByZ-81" target="fWS9ggma_vgh0mWTJByZ-85">
          <mxGeometry width="50" height="50" relative="1" as="geometry">
            <mxPoint x="1090" y="460" as="sourcePoint" />
            <mxPoint x="1140" y="410" as="targetPoint" />
          </mxGeometry>
        </mxCell>
        <mxCell id="fWS9ggma_vgh0mWTJByZ-87" value="" style="endArrow=classic;html=1;rounded=0;exitX=0.5;exitY=1;exitDx=0;exitDy=0;entryX=0.5;entryY=0;entryDx=0;entryDy=0;" edge="1" parent="1" source="fWS9ggma_vgh0mWTJByZ-84" target="fWS9ggma_vgh0mWTJByZ-88">
          <mxGeometry width="50" height="50" relative="1" as="geometry">
            <mxPoint x="890" y="650" as="sourcePoint" />
            <mxPoint x="785" y="650" as="targetPoint" />
          </mxGeometry>
        </mxCell>
        <mxCell id="fWS9ggma_vgh0mWTJByZ-88" value="" style="rhombus;whiteSpace=wrap;html=1;" vertex="1" parent="1">
          <mxGeometry x="757.5" y="650" width="55" height="50" as="geometry" />
        </mxCell>
        <mxCell id="fWS9ggma_vgh0mWTJByZ-90" value="" style="endArrow=classic;html=1;rounded=0;entryX=0.5;entryY=0;entryDx=0;entryDy=0;" edge="1" parent="1" target="fWS9ggma_vgh0mWTJByZ-94">
          <mxGeometry width="50" height="50" relative="1" as="geometry">
            <mxPoint x="785" y="710" as="sourcePoint" />
            <mxPoint x="785" y="750" as="targetPoint" />
          </mxGeometry>
        </mxCell>
        <mxCell id="fWS9ggma_vgh0mWTJByZ-93" value="新能源停车位充电" style="edgeLabel;html=1;align=center;verticalAlign=middle;resizable=0;points=[];" vertex="1" connectable="0" parent="fWS9ggma_vgh0mWTJByZ-90">
          <mxGeometry x="-0.3471" y="1" relative="1" as="geometry">
            <mxPoint as="offset" />
          </mxGeometry>
        </mxCell>
        <mxCell id="fWS9ggma_vgh0mWTJByZ-91" value="" style="endArrow=classic;html=1;rounded=0;exitX=0;exitY=0.5;exitDx=0;exitDy=0;entryX=1;entryY=0.5;entryDx=0;entryDy=0;" edge="1" parent="1" source="fWS9ggma_vgh0mWTJByZ-88" target="fWS9ggma_vgh0mWTJByZ-92">
          <mxGeometry width="50" height="50" relative="1" as="geometry">
            <mxPoint x="600" y="700" as="sourcePoint" />
            <mxPoint x="710" y="675" as="targetPoint" />
          </mxGeometry>
        </mxCell>
        <mxCell id="fWS9ggma_vgh0mWTJByZ-92" value="&lt;font style=&quot;font-size: 18px;&quot;&gt;停车&lt;/font&gt;" style="rounded=1;whiteSpace=wrap;html=1;" vertex="1" parent="1">
          <mxGeometry x="610" y="655" width="90" height="40" as="geometry" />
        </mxCell>
        <mxCell id="fWS9ggma_vgh0mWTJByZ-94" value="&lt;font style=&quot;font-size: 18px;&quot;&gt;充电并停车&lt;/font&gt;" style="rounded=1;whiteSpace=wrap;html=1;" vertex="1" parent="1">
          <mxGeometry x="740" y="750" width="90" height="40" as="geometry" />
        </mxCell>
        <mxCell id="fWS9ggma_vgh0mWTJByZ-96" value="" style="endArrow=classic;html=1;rounded=0;exitX=0.5;exitY=1;exitDx=0;exitDy=0;entryX=0.5;entryY=0;entryDx=0;entryDy=0;" edge="1" parent="1" source="fWS9ggma_vgh0mWTJByZ-94" target="fWS9ggma_vgh0mWTJByZ-97">
          <mxGeometry width="50" height="50" relative="1" as="geometry">
            <mxPoint x="840" y="880" as="sourcePoint" />
            <mxPoint x="785" y="820" as="targetPoint" />
          </mxGeometry>
        </mxCell>
        <mxCell id="fWS9ggma_vgh0mWTJByZ-97" value="&lt;font style=&quot;font-size: 18px;&quot;&gt;支付充电费用&lt;/font&gt;" style="rounded=1;whiteSpace=wrap;html=1;" vertex="1" parent="1">
          <mxGeometry x="740" y="820" width="90" height="40" as="geometry" />
        </mxCell>
        <mxCell id="fWS9ggma_vgh0mWTJByZ-98" value="" style="endArrow=classic;html=1;rounded=0;exitX=0.5;exitY=1;exitDx=0;exitDy=0;edgeStyle=orthogonalEdgeStyle;entryX=0;entryY=0.5;entryDx=0;entryDy=0;" edge="1" parent="1" source="fWS9ggma_vgh0mWTJByZ-92" target="fWS9ggma_vgh0mWTJByZ-99">
          <mxGeometry width="50" height="50" relative="1" as="geometry">
            <mxPoint x="700" y="970" as="sourcePoint" />
            <mxPoint x="720" y="990" as="targetPoint" />
            <Array as="points">
              <mxPoint x="655" y="905" />
            </Array>
          </mxGeometry>
        </mxCell>
        <mxCell id="fWS9ggma_vgh0mWTJByZ-99" value="" style="rhombus;whiteSpace=wrap;html=1;" vertex="1" parent="1">
          <mxGeometry x="757.5" y="880" width="55" height="50" as="geometry" />
        </mxCell>
        <mxCell id="fWS9ggma_vgh0mWTJByZ-100" value="" style="endArrow=classic;html=1;rounded=0;exitX=0.5;exitY=1;exitDx=0;exitDy=0;entryX=0.5;entryY=0;entryDx=0;entryDy=0;" edge="1" parent="1" source="fWS9ggma_vgh0mWTJByZ-97" target="fWS9ggma_vgh0mWTJByZ-99">
          <mxGeometry width="50" height="50" relative="1" as="geometry">
            <mxPoint x="870" y="860" as="sourcePoint" />
            <mxPoint x="920" y="810" as="targetPoint" />
          </mxGeometry>
        </mxCell>
        <mxCell id="fWS9ggma_vgh0mWTJByZ-102" value="" style="endArrow=classic;html=1;rounded=0;exitX=1;exitY=0.5;exitDx=0;exitDy=0;entryX=0;entryY=0.5;entryDx=0;entryDy=0;" edge="1" parent="1" source="fWS9ggma_vgh0mWTJByZ-99" target="fWS9ggma_vgh0mWTJByZ-103">
          <mxGeometry width="50" height="50" relative="1" as="geometry">
            <mxPoint x="850" y="920" as="sourcePoint" />
            <mxPoint x="970" y="905" as="targetPoint" />
          </mxGeometry>
        </mxCell>
        <mxCell id="fWS9ggma_vgh0mWTJByZ-103" value="&lt;font style=&quot;font-size: 18px;&quot;&gt;移动支付&lt;/font&gt;" style="rounded=1;whiteSpace=wrap;html=1;" vertex="1" parent="1">
          <mxGeometry x="1170" y="885" width="90" height="40" as="geometry" />
        </mxCell>
        <mxCell id="fWS9ggma_vgh0mWTJByZ-105" value="" style="endArrow=none;html=1;rounded=0;exitX=0.5;exitY=1;exitDx=0;exitDy=0;" edge="1" parent="1" source="fWS9ggma_vgh0mWTJByZ-99">
          <mxGeometry width="50" height="50" relative="1" as="geometry">
            <mxPoint x="810" y="1080" as="sourcePoint" />
            <mxPoint x="785" y="980" as="targetPoint" />
          </mxGeometry>
        </mxCell>
        <mxCell id="fWS9ggma_vgh0mWTJByZ-108" value="&lt;font style=&quot;font-size: 18px;&quot;&gt;第三方支付&lt;/font&gt;" style="rounded=1;whiteSpace=wrap;html=1;" vertex="1" parent="1">
          <mxGeometry x="980" y="960" width="90" height="40" as="geometry" />
        </mxCell>
        <mxCell id="fWS9ggma_vgh0mWTJByZ-109" value="" style="endArrow=none;html=1;rounded=0;" edge="1" parent="1" target="fWS9ggma_vgh0mWTJByZ-99">
          <mxGeometry width="50" height="50" relative="1" as="geometry">
            <mxPoint x="810" y="910" as="sourcePoint" />
            <mxPoint x="860" y="860" as="targetPoint" />
          </mxGeometry>
        </mxCell>
        <mxCell id="fWS9ggma_vgh0mWTJByZ-111" value="" style="endArrow=none;html=1;rounded=0;exitX=1;exitY=0.5;exitDx=0;exitDy=0;" edge="1" parent="1" source="fWS9ggma_vgh0mWTJByZ-99">
          <mxGeometry width="50" height="50" relative="1" as="geometry">
            <mxPoint x="920" y="870" as="sourcePoint" />
            <mxPoint x="812" y="870" as="targetPoint" />
          </mxGeometry>
        </mxCell>
        <mxCell id="fWS9ggma_vgh0mWTJByZ-113" value="&lt;font style=&quot;font-size: 18px;&quot;&gt;现金支付&lt;/font&gt;" style="rounded=1;whiteSpace=wrap;html=1;" vertex="1" parent="1">
          <mxGeometry x="1400" y="850" width="90" height="40" as="geometry" />
        </mxCell>
        <mxCell id="fWS9ggma_vgh0mWTJByZ-114" value="&lt;font style=&quot;font-size: 18px;&quot;&gt;第三方平台&lt;/font&gt;" style="text;html=1;align=center;verticalAlign=middle;whiteSpace=wrap;rounded=0;" vertex="1" parent="1">
          <mxGeometry x="1185" y="150" width="60" height="30" as="geometry" />
        </mxCell>
        <mxCell id="fWS9ggma_vgh0mWTJByZ-115" value="&lt;font style=&quot;font-size: 18px;&quot;&gt;停车场工作人员&lt;/font&gt;" style="text;html=1;align=center;verticalAlign=middle;whiteSpace=wrap;rounded=0;" vertex="1" parent="1">
          <mxGeometry x="1399" y="150" width="60" height="30" as="geometry" />
        </mxCell>
        <mxCell id="fWS9ggma_vgh0mWTJByZ-116" value="" style="endArrow=classic;html=1;rounded=0;entryX=0;entryY=0.5;entryDx=0;entryDy=0;" edge="1" parent="1" target="fWS9ggma_vgh0mWTJByZ-108">
          <mxGeometry width="50" height="50" relative="1" as="geometry">
            <mxPoint x="790" y="980" as="sourcePoint" />
            <mxPoint x="870" y="940" as="targetPoint" />
          </mxGeometry>
        </mxCell>
        <mxCell id="fWS9ggma_vgh0mWTJByZ-118" value="" style="endArrow=classic;html=1;rounded=0;entryX=0;entryY=0.5;entryDx=0;entryDy=0;" edge="1" parent="1" target="fWS9ggma_vgh0mWTJByZ-113">
          <mxGeometry width="50" height="50" relative="1" as="geometry">
            <mxPoint x="810" y="870" as="sourcePoint" />
            <mxPoint x="880" y="830" as="targetPoint" />
          </mxGeometry>
        </mxCell>
        <mxCell id="fWS9ggma_vgh0mWTJByZ-119" value="" style="endArrow=classic;html=1;rounded=0;exitX=0.5;exitY=1;exitDx=0;exitDy=0;edgeStyle=orthogonalEdgeStyle;entryX=0.5;entryY=0;entryDx=0;entryDy=0;" edge="1" parent="1" source="fWS9ggma_vgh0mWTJByZ-103" target="fWS9ggma_vgh0mWTJByZ-122">
          <mxGeometry width="50" height="50" relative="1" as="geometry">
            <mxPoint x="1260" y="1000" as="sourcePoint" />
            <mxPoint x="1020" y="1110" as="targetPoint" />
            <Array as="points">
              <mxPoint x="1215" y="1020" />
              <mxPoint x="1025" y="1020" />
            </Array>
          </mxGeometry>
        </mxCell>
        <mxCell id="fWS9ggma_vgh0mWTJByZ-120" value="" style="endArrow=classic;html=1;rounded=0;exitX=0.5;exitY=1;exitDx=0;exitDy=0;entryX=0.5;entryY=0;entryDx=0;entryDy=0;" edge="1" parent="1" source="fWS9ggma_vgh0mWTJByZ-108" target="fWS9ggma_vgh0mWTJByZ-122">
          <mxGeometry width="50" height="50" relative="1" as="geometry">
            <mxPoint x="1090" y="1100" as="sourcePoint" />
            <mxPoint x="1025" y="1040" as="targetPoint" />
          </mxGeometry>
        </mxCell>
        <mxCell id="fWS9ggma_vgh0mWTJByZ-122" value="" style="rhombus;whiteSpace=wrap;html=1;" vertex="1" parent="1">
          <mxGeometry x="997.5" y="1050" width="55" height="50" as="geometry" />
        </mxCell>
        <mxCell id="fWS9ggma_vgh0mWTJByZ-124" value="" style="endArrow=none;html=1;rounded=0;" edge="1" parent="1">
          <mxGeometry width="50" height="50" relative="1" as="geometry">
            <mxPoint x="1440" y="1080" as="sourcePoint" />
            <mxPoint x="1440" y="890" as="targetPoint" />
          </mxGeometry>
        </mxCell>
        <mxCell id="fWS9ggma_vgh0mWTJByZ-126" value="" style="endArrow=classic;html=1;rounded=0;entryX=1;entryY=0.5;entryDx=0;entryDy=0;" edge="1" parent="1" target="fWS9ggma_vgh0mWTJByZ-122">
          <mxGeometry width="50" height="50" relative="1" as="geometry">
            <mxPoint x="1440" y="1080" as="sourcePoint" />
            <mxPoint x="1180" y="1020" as="targetPoint" />
          </mxGeometry>
        </mxCell>
        <mxCell id="fWS9ggma_vgh0mWTJByZ-127" value="&lt;font style=&quot;font-size: 18px;&quot;&gt;审核车辆缴费信息&lt;/font&gt;" style="rounded=1;whiteSpace=wrap;html=1;" vertex="1" parent="1">
          <mxGeometry x="980" y="1130" width="90" height="40" as="geometry" />
        </mxCell>
        <mxCell id="fWS9ggma_vgh0mWTJByZ-128" value="" style="endArrow=classic;html=1;rounded=0;exitX=0.5;exitY=1;exitDx=0;exitDy=0;" edge="1" parent="1" source="fWS9ggma_vgh0mWTJByZ-122" target="fWS9ggma_vgh0mWTJByZ-127">
          <mxGeometry width="50" height="50" relative="1" as="geometry">
            <mxPoint x="1170" y="1160" as="sourcePoint" />
            <mxPoint x="1220" y="1110" as="targetPoint" />
          </mxGeometry>
        </mxCell>
        <mxCell id="fWS9ggma_vgh0mWTJByZ-129" value="" style="endArrow=classic;html=1;rounded=0;exitX=0.5;exitY=1;exitDx=0;exitDy=0;" edge="1" parent="1" source="fWS9ggma_vgh0mWTJByZ-127">
          <mxGeometry width="50" height="50" relative="1" as="geometry">
            <mxPoint x="1080" y="1280" as="sourcePoint" />
            <mxPoint x="1025" y="1200" as="targetPoint" />
          </mxGeometry>
        </mxCell>
        <mxCell id="fWS9ggma_vgh0mWTJByZ-130" value="" style="rhombus;whiteSpace=wrap;html=1;" vertex="1" parent="1">
          <mxGeometry x="997.5" y="1200" width="55" height="50" as="geometry" />
        </mxCell>
        <mxCell id="fWS9ggma_vgh0mWTJByZ-132" value="" style="endArrow=none;html=1;rounded=0;" edge="1" parent="1">
          <mxGeometry width="50" height="50" relative="1" as="geometry">
            <mxPoint x="1024.29" y="1280" as="sourcePoint" />
            <mxPoint x="1024.29" y="1250" as="targetPoint" />
          </mxGeometry>
        </mxCell>
        <mxCell id="fWS9ggma_vgh0mWTJByZ-133" value="" style="endArrow=classic;html=1;rounded=0;entryX=1;entryY=0.5;entryDx=0;entryDy=0;" edge="1" parent="1" target="fWS9ggma_vgh0mWTJByZ-134">
          <mxGeometry width="50" height="50" relative="1" as="geometry">
            <mxPoint x="1020" y="1280" as="sourcePoint" />
            <mxPoint x="830" y="1280" as="targetPoint" />
          </mxGeometry>
        </mxCell>
        <mxCell id="fWS9ggma_vgh0mWTJByZ-134" value="&lt;font style=&quot;font-size: 18px;&quot;&gt;离开停车场&lt;/font&gt;" style="rounded=1;whiteSpace=wrap;html=1;" vertex="1" parent="1">
          <mxGeometry x="740" y="1260" width="90" height="40" as="geometry" />
        </mxCell>
        <mxCell id="fWS9ggma_vgh0mWTJByZ-137" value="" style="endArrow=classic;html=1;rounded=0;exitX=0;exitY=0.5;exitDx=0;exitDy=0;entryX=1;entryY=0.5;entryDx=0;entryDy=0;" edge="1" parent="1" source="fWS9ggma_vgh0mWTJByZ-134" target="fWS9ggma_vgh0mWTJByZ-57">
          <mxGeometry width="50" height="50" relative="1" as="geometry">
            <mxPoint x="600" y="1240" as="sourcePoint" />
            <mxPoint x="680" y="1280" as="targetPoint" />
          </mxGeometry>
        </mxCell>
        <mxCell id="fWS9ggma_vgh0mWTJByZ-141" style="edgeStyle=orthogonalEdgeStyle;rounded=0;orthogonalLoop=1;jettySize=auto;html=1;exitX=0;exitY=1;exitDx=0;exitDy=0;entryX=0.5;entryY=1;entryDx=0;entryDy=0;" edge="1" parent="1" source="fWS9ggma_vgh0mWTJByZ-57" target="fWS9ggma_vgh0mWTJByZ-57">
          <mxGeometry relative="1" as="geometry" />
        </mxCell>
        <mxCell id="fWS9ggma_vgh0mWTJByZ-146" value="" style="endArrow=none;html=1;rounded=0;" edge="1" parent="1">
          <mxGeometry width="50" height="50" relative="1" as="geometry">
            <mxPoint x="880" y="1320" as="sourcePoint" />
            <mxPoint x="880" y="110" as="targetPoint" />
          </mxGeometry>
        </mxCell>
        <mxCell id="fWS9ggma_vgh0mWTJByZ-147" value="" style="endArrow=none;html=1;rounded=0;" edge="1" parent="1">
          <mxGeometry width="50" height="50" relative="1" as="geometry">
            <mxPoint x="1120" y="1330" as="sourcePoint" />
            <mxPoint x="1120" y="120" as="targetPoint" />
          </mxGeometry>
        </mxCell>
        <mxCell id="fWS9ggma_vgh0mWTJByZ-148" value="" style="endArrow=none;html=1;rounded=0;" edge="1" parent="1">
          <mxGeometry width="50" height="50" relative="1" as="geometry">
            <mxPoint x="1320" y="1330" as="sourcePoint" />
            <mxPoint x="1320" y="120" as="targetPoint" />
          </mxGeometry>
        </mxCell>
        <mxCell id="fWS9ggma_vgh0mWTJByZ-149" value="" style="ellipse;whiteSpace=wrap;html=1;aspect=fixed;strokeColor=default;gradientColor=none;fillColor=#000000;" vertex="1" parent="1">
          <mxGeometry x="1760" y="140" width="20" height="20" as="geometry" />
        </mxCell>
        <mxCell id="fWS9ggma_vgh0mWTJByZ-150" value="" style="ellipse;html=1;shape=endState;fillColor=#000000;strokeColor=#0d0d0d;" vertex="1" parent="1">
          <mxGeometry x="1755" y="453" width="30" height="30" as="geometry" />
        </mxCell>
        <mxCell id="fWS9ggma_vgh0mWTJByZ-151" value="" style="endArrow=classic;html=1;rounded=0;exitX=1;exitY=0.5;exitDx=0;exitDy=0;entryX=0;entryY=0.333;entryDx=0;entryDy=0;entryPerimeter=0;" edge="1" parent="1" source="fWS9ggma_vgh0mWTJByZ-149" target="fWS9ggma_vgh0mWTJByZ-152">
          <mxGeometry width="50" height="50" relative="1" as="geometry">
            <mxPoint x="2100" y="170" as="sourcePoint" />
            <mxPoint x="1960" y="150" as="targetPoint" />
          </mxGeometry>
        </mxCell>
        <mxCell id="fWS9ggma_vgh0mWTJByZ-152" value="&lt;font style=&quot;font-size: 18px;&quot;&gt;等待系统识别&lt;/font&gt;" style="rounded=1;whiteSpace=wrap;html=1;" vertex="1" parent="1">
          <mxGeometry x="1970" y="129" width="120" height="60" as="geometry" />
        </mxCell>
        <mxCell id="fWS9ggma_vgh0mWTJByZ-153" value="" style="endArrow=none;html=1;rounded=0;" edge="1" parent="1">
          <mxGeometry width="50" height="50" relative="1" as="geometry">
            <mxPoint x="1770" y="170" as="sourcePoint" />
            <mxPoint x="1970" y="170" as="targetPoint" />
          </mxGeometry>
        </mxCell>
        <mxCell id="fWS9ggma_vgh0mWTJByZ-154" value="" style="endArrow=classic;html=1;rounded=0;entryX=0.5;entryY=0;entryDx=0;entryDy=0;" edge="1" parent="1" target="fWS9ggma_vgh0mWTJByZ-150">
          <mxGeometry width="50" height="50" relative="1" as="geometry">
            <mxPoint x="1770" y="170" as="sourcePoint" />
            <mxPoint x="1770" y="370" as="targetPoint" />
          </mxGeometry>
        </mxCell>
        <mxCell id="fWS9ggma_vgh0mWTJByZ-156" value="&lt;font style=&quot;font-size: 18px;&quot;&gt;没有停车位&lt;/font&gt;" style="edgeLabel;html=1;align=center;verticalAlign=middle;resizable=0;points=[];" vertex="1" connectable="0" parent="fWS9ggma_vgh0mWTJByZ-154">
          <mxGeometry x="-0.1276" y="4" relative="1" as="geometry">
            <mxPoint as="offset" />
          </mxGeometry>
        </mxCell>
        <mxCell id="fWS9ggma_vgh0mWTJByZ-155" style="edgeStyle=orthogonalEdgeStyle;rounded=0;orthogonalLoop=1;jettySize=auto;html=1;exitX=1;exitY=1;exitDx=0;exitDy=0;entryX=1;entryY=0;entryDx=0;entryDy=0;" edge="1" parent="1" source="fWS9ggma_vgh0mWTJByZ-150" target="fWS9ggma_vgh0mWTJByZ-150">
          <mxGeometry relative="1" as="geometry" />
        </mxCell>
        <mxCell id="fWS9ggma_vgh0mWTJByZ-157" value="" style="endArrow=classic;html=1;rounded=0;exitX=1;exitY=0.5;exitDx=0;exitDy=0;" edge="1" parent="1" source="fWS9ggma_vgh0mWTJByZ-152">
          <mxGeometry width="50" height="50" relative="1" as="geometry">
            <mxPoint x="2260" y="200" as="sourcePoint" />
            <mxPoint x="2240" y="160" as="targetPoint" />
          </mxGeometry>
        </mxCell>
        <mxCell id="fWS9ggma_vgh0mWTJByZ-159" value="&lt;span style=&quot;font-size: 18px;&quot;&gt;进入停车场&lt;/span&gt;" style="rounded=1;whiteSpace=wrap;html=1;" vertex="1" parent="1">
          <mxGeometry x="2240" y="129" width="120" height="60" as="geometry" />
        </mxCell>
        <mxCell id="fWS9ggma_vgh0mWTJByZ-160" value="" style="endArrow=classic;html=1;rounded=0;exitX=0.5;exitY=1;exitDx=0;exitDy=0;entryX=0.5;entryY=0;entryDx=0;entryDy=0;" edge="1" parent="1" source="fWS9ggma_vgh0mWTJByZ-159" target="fWS9ggma_vgh0mWTJByZ-161">
          <mxGeometry width="50" height="50" relative="1" as="geometry">
            <mxPoint x="2370" y="420" as="sourcePoint" />
            <mxPoint x="2300" y="260" as="targetPoint" />
          </mxGeometry>
        </mxCell>
        <mxCell id="fWS9ggma_vgh0mWTJByZ-161" value="&lt;span style=&quot;font-size: 18px;&quot;&gt;停车&lt;/span&gt;" style="rounded=1;whiteSpace=wrap;html=1;" vertex="1" parent="1">
          <mxGeometry x="2240" y="260" width="120" height="60" as="geometry" />
        </mxCell>
        <mxCell id="fWS9ggma_vgh0mWTJByZ-162" value="" style="endArrow=classic;html=1;rounded=0;exitX=1;exitY=0.25;exitDx=0;exitDy=0;entryX=0;entryY=0.5;entryDx=0;entryDy=0;" edge="1" parent="1" source="fWS9ggma_vgh0mWTJByZ-161" target="fWS9ggma_vgh0mWTJByZ-163">
          <mxGeometry width="50" height="50" relative="1" as="geometry">
            <mxPoint x="2500" y="290" as="sourcePoint" />
            <mxPoint x="2500" y="275" as="targetPoint" />
          </mxGeometry>
        </mxCell>
        <mxCell id="fWS9ggma_vgh0mWTJByZ-164" value="开始充电" style="edgeLabel;html=1;align=center;verticalAlign=middle;resizable=0;points=[];" vertex="1" connectable="0" parent="fWS9ggma_vgh0mWTJByZ-162">
          <mxGeometry x="-0.0459" y="-2" relative="1" as="geometry">
            <mxPoint x="1" as="offset" />
          </mxGeometry>
        </mxCell>
        <mxCell id="fWS9ggma_vgh0mWTJByZ-163" value="&lt;span style=&quot;font-size: 18px;&quot;&gt;充电&lt;/span&gt;" style="rounded=1;whiteSpace=wrap;html=1;" vertex="1" parent="1">
          <mxGeometry x="2500" y="244" width="120" height="60" as="geometry" />
        </mxCell>
        <mxCell id="fWS9ggma_vgh0mWTJByZ-165" value="" style="endArrow=classic;html=1;rounded=0;exitX=0;exitY=1;exitDx=0;exitDy=0;entryX=1;entryY=0.75;entryDx=0;entryDy=0;" edge="1" parent="1" source="fWS9ggma_vgh0mWTJByZ-163" target="fWS9ggma_vgh0mWTJByZ-161">
          <mxGeometry width="50" height="50" relative="1" as="geometry">
            <mxPoint x="2190" y="400" as="sourcePoint" />
            <mxPoint x="2240" y="350" as="targetPoint" />
          </mxGeometry>
        </mxCell>
        <mxCell id="fWS9ggma_vgh0mWTJByZ-166" value="停止充电" style="edgeLabel;html=1;align=center;verticalAlign=middle;resizable=0;points=[];" vertex="1" connectable="0" parent="fWS9ggma_vgh0mWTJByZ-165">
          <mxGeometry x="0.1029" relative="1" as="geometry">
            <mxPoint x="1" as="offset" />
          </mxGeometry>
        </mxCell>
        <mxCell id="fWS9ggma_vgh0mWTJByZ-167" value="" style="endArrow=classic;html=1;rounded=0;exitX=0.5;exitY=1;exitDx=0;exitDy=0;entryX=0.5;entryY=0;entryDx=0;entryDy=0;" edge="1" parent="1" source="fWS9ggma_vgh0mWTJByZ-161" target="fWS9ggma_vgh0mWTJByZ-168">
          <mxGeometry width="50" height="50" relative="1" as="geometry">
            <mxPoint x="2350" y="630" as="sourcePoint" />
            <mxPoint x="2300" y="400" as="targetPoint" />
          </mxGeometry>
        </mxCell>
        <mxCell id="fWS9ggma_vgh0mWTJByZ-168" value="&lt;span style=&quot;font-size: 18px;&quot;&gt;等待系统审核缴费信息&lt;/span&gt;" style="rounded=1;whiteSpace=wrap;html=1;" vertex="1" parent="1">
          <mxGeometry x="2240" y="435" width="120" height="60" as="geometry" />
        </mxCell>
        <mxCell id="fWS9ggma_vgh0mWTJByZ-169" value="" style="endArrow=classic;html=1;rounded=0;exitX=0;exitY=0.5;exitDx=0;exitDy=0;entryX=1;entryY=0.5;entryDx=0;entryDy=0;" edge="1" parent="1" target="fWS9ggma_vgh0mWTJByZ-170">
          <mxGeometry width="50" height="50" relative="1" as="geometry">
            <mxPoint x="2240" y="466" as="sourcePoint" />
            <mxPoint x="2110" y="461" as="targetPoint" />
          </mxGeometry>
        </mxCell>
        <mxCell id="fWS9ggma_vgh0mWTJByZ-170" value="&lt;span style=&quot;font-size: 18px;&quot;&gt;离开停车场&lt;/span&gt;" style="rounded=1;whiteSpace=wrap;html=1;" vertex="1" parent="1">
          <mxGeometry x="1970" y="437" width="120" height="60" as="geometry" />
        </mxCell>
        <mxCell id="fWS9ggma_vgh0mWTJByZ-173" value="" style="endArrow=classic;html=1;rounded=0;exitX=0;exitY=0.5;exitDx=0;exitDy=0;entryX=1;entryY=0.5;entryDx=0;entryDy=0;" edge="1" parent="1" source="fWS9ggma_vgh0mWTJByZ-170" target="fWS9ggma_vgh0mWTJByZ-150">
          <mxGeometry width="50" height="50" relative="1" as="geometry">
            <mxPoint x="1950" y="410" as="sourcePoint" />
            <mxPoint x="2000" y="360" as="targetPoint" />
          </mxGeometry>
        </mxCell>
        <mxCell id="fWS9ggma_vgh0mWTJByZ-174" value="&lt;p style=&quot;text-align: center; margin: 4px 0px 0px;&quot;&gt;&lt;font style=&quot;font-size: 18px;&quot; face=&quot;Helvetica&quot;&gt;&lt;span style=&quot;background-color: initial; text-align: left;&quot;&gt;&lt;b style=&quot;&quot;&gt;&amp;nbsp; &amp;nbsp; &amp;nbsp; &amp;nbsp; &amp;nbsp; &amp;nbsp; &amp;nbsp; parkcontroller&lt;/b&gt;&lt;/span&gt;&lt;span style=&quot;color: rgba(0, 0, 0, 0); text-wrap: nowrap; background-color: initial; text-align: left;&quot;&gt;%3CmxGraphModel%3E%3Croot%3E%3CmxCell%20id%3D%220%22%2F%3E%3CmxCell%20id%3D%221%22%20parent%3D%220%22%2F%3E%3CmxCell%20id%3D%222%22%20value%3D%22%26lt%3Bp%20style%3D%26quot%3Bmargin%3A0px%3Bmargin-top%3A4px%3Btext-align%3Acenter%3B%26quot%3B%26gt%3B%26lt%3Bb%26gt%3BClass%26lt%3B%2Fb%26gt%3B%26lt%3B%2Fp%26gt%3B%26lt%3Bhr%20size%3D%26quot%3B1%26quot%3B%20style%3D%26quot%3Bborder-style%3Asolid%3B%26quot%3B%2F%26gt%3B%26lt%3Bp%20style%3D%26quot%3Bmargin%3A0px%3Bmargin-left%3A4px%3B%26quot%3B%26gt%3B%2B%20field%3A%20Type%26lt%3B%2Fp%26gt%3B%26lt%3Bhr%20size%3D%26quot%3B1%26quot%3B%20style%3D%26quot%3Bborder-style%3Asolid%3B%26quot%3B%2F%26gt%3B%26lt%3Bp%20style%3D%26quot%3Bmargin%3A0px%3Bmargin-left%3A4px%3B%26quot%3B%26gt%3B%2B%20method()%3A%20Type%26lt%3B%2Fp%26gt%3B%22%20style%3D%22verticalAlign%3Dtop%3Balign%3Dleft%3Boverflow%3Dfill%3Bhtml%3D1%3BwhiteSpace%3Dwrap%3B%22%20vertex%3D%221%22%20parent%3D%221%22%3E%3CmxGeometry%20x%3D%22630%22%20y%3D%2290%22%20width%3D%22160%22%20height%3D%2290%22%20as%3D%22geometry%22%2F%3E%3C%2FmxCell%3E%3C%2Froot%3E%3C%2FmxGraphModel%3&lt;/span&gt;&lt;b style=&quot;background-color: initial;&quot;&gt;Controller&lt;/b&gt;&lt;/font&gt;&lt;/p&gt;&lt;hr size=&quot;1&quot; style=&quot;border-style:solid;&quot;&gt;&lt;p style=&quot;margin:0px;margin-left:4px;&quot;&gt;&lt;br&gt;&lt;/p&gt;&lt;hr size=&quot;1&quot; style=&quot;border-style:solid;&quot;&gt;&lt;p style=&quot;margin:0px;margin-left:4px;&quot;&gt;&lt;font size=&quot;3&quot; face=&quot;RY7z2Xwn7kv8BznoPx8B&quot; style=&quot;&quot;&gt;&lt;span style=&quot;text-align: center;&quot;&gt;&lt;font style=&quot;&quot;&gt;+&amp;nbsp; showMess()&lt;/font&gt;&lt;/span&gt;&lt;br&gt;&lt;/font&gt;&lt;/p&gt;&lt;p style=&quot;margin:0px;margin-left:4px;&quot;&gt;&lt;span style=&quot;text-align: center;&quot;&gt;&lt;font size=&quot;3&quot; style=&quot;&quot; face=&quot;RY7z2Xwn7kv8BznoPx8B&quot;&gt;&amp;nbsp;&lt;/font&gt;&lt;/span&gt;&lt;/p&gt;&lt;p style=&quot;margin:0px;margin-left:4px;&quot;&gt;&lt;span style=&quot;text-align: center;&quot;&gt;&lt;font size=&quot;3&quot; style=&quot;&quot; face=&quot;RY7z2Xwn7kv8BznoPx8B&quot;&gt;+&amp;nbsp; apply()&lt;/font&gt;&lt;/span&gt;&lt;/p&gt;&lt;p style=&quot;margin:0px;margin-left:4px;&quot;&gt;&lt;span style=&quot;text-align: center;&quot;&gt;&lt;font size=&quot;3&quot; style=&quot;&quot; face=&quot;RY7z2Xwn7kv8BznoPx8B&quot;&gt;&lt;br&gt;&lt;/font&gt;&lt;/span&gt;&lt;/p&gt;&lt;p style=&quot;margin:0px;margin-left:4px;&quot;&gt;&lt;span style=&quot;text-align: center;&quot;&gt;&lt;font size=&quot;3&quot; style=&quot;&quot; face=&quot;RY7z2Xwn7kv8BznoPx8B&quot;&gt;+&amp;nbsp; showifpay()&lt;/font&gt;&lt;/span&gt;&lt;/p&gt;&lt;p style=&quot;margin: 0px 0px 0px 4px;&quot;&gt;&lt;br&gt;&lt;/p&gt;&lt;p style=&quot;margin: 0px 0px 0px 4px;&quot;&gt;&lt;font face=&quot;RY7z2Xwn7kv8BznoPx8B&quot; size=&quot;3&quot;&gt;&lt;span style=&quot;text-align: center; background-color: initial;&quot;&gt;&lt;br&gt;&lt;/span&gt;&lt;/font&gt;&lt;/p&gt;&lt;p style=&quot;margin: 0px 0px 0px 4px;&quot;&gt;&lt;font face=&quot;RY7z2Xwn7kv8BznoPx8B&quot; size=&quot;3&quot;&gt;&lt;span style=&quot;text-align: center; background-color: initial;&quot;&gt;&lt;br&gt;&lt;/span&gt;&lt;/font&gt;&lt;/p&gt;" style="verticalAlign=top;align=left;overflow=fill;html=1;whiteSpace=wrap;" vertex="1" parent="1">
          <mxGeometry x="560" y="1625" width="190" height="200" as="geometry" />
        </mxCell>
        <mxCell id="fWS9ggma_vgh0mWTJByZ-175" value="&lt;p style=&quot;margin:0px;margin-top:4px;text-align:center;&quot;&gt;&lt;b&gt;parkfullShow&lt;/b&gt;&lt;/p&gt;&lt;hr size=&quot;1&quot; style=&quot;border-style:solid;&quot;&gt;&lt;p style=&quot;margin:0px;margin-left:4px;&quot;&gt;+&amp;nbsp;&lt;/p&gt;&lt;hr size=&quot;1&quot; style=&quot;border-style:solid;&quot;&gt;&lt;p style=&quot;margin:0px;margin-left:4px;&quot;&gt;+&amp;nbsp;&lt;/p&gt;" style="verticalAlign=top;align=left;overflow=fill;html=1;whiteSpace=wrap;" vertex="1" parent="1">
          <mxGeometry x="857.5" y="1560" width="270" height="120" as="geometry" />
        </mxCell>
        <mxCell id="fWS9ggma_vgh0mWTJByZ-177" value="Park" style="swimlane;fontStyle=1;align=center;verticalAlign=top;childLayout=stackLayout;horizontal=1;startSize=26;horizontalStack=0;resizeParent=1;resizeParentMax=0;resizeLast=0;collapsible=1;marginBottom=0;whiteSpace=wrap;html=1;" vertex="1" parent="1">
          <mxGeometry x="50" y="1560" width="340" height="330" as="geometry" />
        </mxCell>
        <mxCell id="fWS9ggma_vgh0mWTJByZ-178" value="&lt;div&gt;&lt;p style=&quot;margin: 0px 0px 0px 4px;&quot;&gt;&lt;font size=&quot;3&quot; face=&quot;RY7z2Xwn7kv8BznoPx8B&quot;&gt;-&amp;nbsp; &amp;nbsp;starttime&lt;/font&gt;&lt;/p&gt;&lt;p style=&quot;margin: 0px 0px 0px 4px;&quot;&gt;&lt;font size=&quot;3&quot; face=&quot;RY7z2Xwn7kv8BznoPx8B&quot;&gt;-&amp;nbsp; &amp;nbsp;recordtime&lt;/font&gt;&lt;/p&gt;&lt;p style=&quot;margin: 0px 0px 0px 4px;&quot;&gt;&lt;font size=&quot;3&quot; face=&quot;RY7z2Xwn7kv8BznoPx8B&quot;&gt;-&amp;nbsp; &amp;nbsp;summoney&lt;/font&gt;&lt;/p&gt;&lt;p style=&quot;margin: 0px 0px 0px 4px;&quot;&gt;&lt;font size=&quot;3&quot; face=&quot;RY7z2Xwn7kv8BznoPx8B&quot;&gt;-&amp;nbsp; &amp;nbsp;timemoney&lt;/font&gt;&lt;/p&gt;&lt;p style=&quot;margin: 0px 0px 0px 4px;&quot;&gt;&lt;font size=&quot;3&quot; face=&quot;RY7z2Xwn7kv8BznoPx8B&quot;&gt;-&amp;nbsp; endtime&lt;/font&gt;&lt;/p&gt;&lt;/div&gt;" style="text;strokeColor=none;fillColor=none;align=left;verticalAlign=top;spacingLeft=4;spacingRight=4;overflow=hidden;rotatable=0;points=[[0,0.5],[1,0.5]];portConstraint=eastwest;whiteSpace=wrap;html=1;" vertex="1" parent="fWS9ggma_vgh0mWTJByZ-177">
          <mxGeometry y="26" width="340" height="134" as="geometry" />
        </mxCell>
        <mxCell id="fWS9ggma_vgh0mWTJByZ-179" value="" style="line;strokeWidth=1;fillColor=none;align=left;verticalAlign=middle;spacingTop=-1;spacingLeft=3;spacingRight=3;rotatable=0;labelPosition=right;points=[];portConstraint=eastwest;strokeColor=inherit;" vertex="1" parent="fWS9ggma_vgh0mWTJByZ-177">
          <mxGeometry y="160" width="340" height="8" as="geometry" />
        </mxCell>
        <mxCell id="fWS9ggma_vgh0mWTJByZ-181" value="&lt;p style=&quot;margin: 0px 0px 0px 4px;&quot;&gt;&lt;span style=&quot;text-align: center; background-color: initial;&quot;&gt;&lt;font face=&quot;RY7z2Xwn7kv8BznoPx8B&quot; size=&quot;3&quot;&gt;+&amp;nbsp; recordtime(clientID,time)&lt;/font&gt;&lt;/span&gt;&lt;/p&gt;&lt;p style=&quot;margin: 0px 0px 0px 4px;&quot;&gt;&lt;span style=&quot;text-align: center; background-color: initial;&quot;&gt;&lt;font face=&quot;RY7z2Xwn7kv8BznoPx8B&quot; size=&quot;3&quot;&gt;&lt;br&gt;&lt;/font&gt;&lt;/span&gt;&lt;/p&gt;&lt;p style=&quot;margin: 0px 0px 0px 4px;&quot;&gt;&lt;font face=&quot;RY7z2Xwn7kv8BznoPx8B&quot; size=&quot;3&quot;&gt;&lt;span style=&quot;text-align: center; background-color: initial;&quot;&gt;+&amp;nbsp; calculate&lt;/span&gt;&lt;span style=&quot;text-align: center; background-color: initial;&quot;&gt;(timemoney,recordtime)&lt;/span&gt;&lt;/font&gt;&lt;/p&gt;&lt;p style=&quot;margin: 0px 0px 0px 4px;&quot;&gt;&lt;font face=&quot;RY7z2Xwn7kv8BznoPx8B&quot; size=&quot;3&quot;&gt;&lt;span style=&quot;text-align: center; background-color: initial;&quot;&gt;&lt;br&gt;&lt;/span&gt;&lt;/font&gt;&lt;/p&gt;&lt;p style=&quot;margin: 0px 0px 0px 4px;&quot;&gt;&lt;font face=&quot;RY7z2Xwn7kv8BznoPx8B&quot; size=&quot;3&quot;&gt;&lt;span style=&quot;text-align: center; background-color: initial;&quot;&gt;+&amp;nbsp; whetherpay(clinetID)&lt;/span&gt;&lt;/font&gt;&lt;/p&gt;&lt;p style=&quot;margin: 0px 0px 0px 4px;&quot;&gt;&lt;font face=&quot;RY7z2Xwn7kv8BznoPx8B&quot; size=&quot;3&quot;&gt;&lt;span style=&quot;text-align: center; background-color: initial;&quot;&gt;&lt;br&gt;&lt;/span&gt;&lt;/font&gt;&lt;/p&gt;&lt;p style=&quot;margin: 0px 0px 0px 4px;&quot;&gt;&lt;font face=&quot;RY7z2Xwn7kv8BznoPx8B&quot; size=&quot;3&quot;&gt;&lt;span style=&quot;text-align: center; background-color: initial;&quot;&gt;+&amp;nbsp; whetherfull()&lt;/span&gt;&lt;/font&gt;&lt;/p&gt;" style="text;strokeColor=none;fillColor=none;align=left;verticalAlign=top;spacingLeft=4;spacingRight=4;overflow=hidden;rotatable=0;points=[[0,0.5],[1,0.5]];portConstraint=eastwest;whiteSpace=wrap;html=1;" vertex="1" parent="fWS9ggma_vgh0mWTJByZ-177">
          <mxGeometry y="168" width="340" height="162" as="geometry" />
        </mxCell>
        <mxCell id="fWS9ggma_vgh0mWTJByZ-182" value="" style="endArrow=classic;html=1;rounded=0;exitX=0;exitY=0.5;exitDx=0;exitDy=0;entryX=1;entryY=0.5;entryDx=0;entryDy=0;dashed=1;" edge="1" parent="1" source="fWS9ggma_vgh0mWTJByZ-175" target="fWS9ggma_vgh0mWTJByZ-174">
          <mxGeometry width="50" height="50" relative="1" as="geometry">
            <mxPoint x="860" y="1640" as="sourcePoint" />
            <mxPoint x="910" y="1590" as="targetPoint" />
          </mxGeometry>
        </mxCell>
        <mxCell id="fWS9ggma_vgh0mWTJByZ-183" value="" style="endArrow=classic;html=1;rounded=0;exitX=0;exitY=0.5;exitDx=0;exitDy=0;entryX=1.029;entryY=-0.019;entryDx=0;entryDy=0;entryPerimeter=0;dashed=1;" edge="1" parent="1" source="fWS9ggma_vgh0mWTJByZ-174" target="fWS9ggma_vgh0mWTJByZ-181">
          <mxGeometry width="50" height="50" relative="1" as="geometry">
            <mxPoint x="430" y="1690" as="sourcePoint" />
            <mxPoint x="480" y="1640" as="targetPoint" />
          </mxGeometry>
        </mxCell>
        <mxCell id="fWS9ggma_vgh0mWTJByZ-184" value="&lt;p style=&quot;margin:0px;margin-top:4px;text-align:center;&quot;&gt;&lt;span style=&quot;text-align: start; font-size: 15px; background-color: rgb(253, 253, 254);&quot;&gt;&lt;font face=&quot;-apple-system, BlinkMacSystemFont, Segoe UI, Roboto, Ubuntu, Helvetica Neue, Helvetica, Arial, PingFang SC, Hiragino Sans GB, Microsoft YaHei UI, Microsoft YaHei, Source Han Sans CN, sans-serif, Apple Color Emoji, Segoe UI Emoji&quot; color=&quot;#05073b&quot;&gt;Parkcar&lt;/font&gt;&lt;/span&gt;&lt;span style=&quot;text-wrap: nowrap; background-color: initial; color: rgba(0, 0, 0, 0); font-family: monospace; text-align: start; font-size: 0px;&quot;&gt;%3CmxGraphModel%3E%3Croot%3E%3CmxCell%20id%3D%220%22%2F%3E%3CmxCell%20id%3D%221%22%20parent%3D%220%22%2F%3E%3CmxCell%20id%3D%222%22%20value%3D%22%26amp%3Blt%3B%26amp%3Blt%3Binterface%26amp%3Bgt%3B%26amp%3Bgt%3B%26lt%3Bdiv%26gt%3B%3AorderIndex%26lt%3B%2Fdiv%26gt%3B%22%20style%3D%22rounded%3D0%3BwhiteSpace%3Dwrap%3Bhtml%3D1%3B%22%20vertex%3D%221%22%20parent%3D%221%22%3E%3CmxGeometry%20x%3D%22141.25%22%20y%3D%2260%22%20width%3D%22120%22%20height%3D%2240%22%20as%3D%22geometry%22%2F%3E%3C%2FmxCell%3E%3C%2Froot%3E%3C%2FmxGraphModel%3E&lt;/span&gt;&lt;br&gt;&lt;/p&gt;&lt;hr size=&quot;1&quot; style=&quot;border-style:solid;&quot;&gt;&lt;p style=&quot;margin:0px;margin-left:4px;&quot;&gt;&lt;span style=&quot;font-family: RY7z2Xwn7kv8BznoPx8B; font-size: medium;&quot;&gt;-&amp;nbsp; &amp;nbsp;starttime&lt;/span&gt;&lt;br&gt;&lt;/p&gt;&lt;p style=&quot;margin:0px;margin-left:4px;&quot;&gt;&lt;font size=&quot;3&quot;&gt;&lt;br&gt;&lt;/font&gt;&lt;/p&gt;&lt;hr size=&quot;1&quot; style=&quot;border-style:solid;&quot;&gt;&lt;p style=&quot;margin:0px;margin-left:4px;&quot;&gt;&lt;span style=&quot;text-align: center;&quot;&gt;&lt;font size=&quot;3&quot;&gt;+&amp;nbsp; create(clinetID,starttime,carclassify)&lt;/font&gt;&lt;/span&gt;&lt;br&gt;&lt;/p&gt;&lt;p style=&quot;margin:0px;margin-left:4px;&quot;&gt;&lt;span style=&quot;text-align: center;&quot;&gt;&lt;font size=&quot;3&quot;&gt;&lt;br&gt;&lt;/font&gt;&lt;/span&gt;&lt;/p&gt;&lt;p style=&quot;margin:0px;margin-left:4px;&quot;&gt;&lt;span style=&quot;text-align: center;&quot;&gt;&lt;font size=&quot;3&quot;&gt;&lt;br&gt;&lt;/font&gt;&lt;/span&gt;&lt;/p&gt;" style="verticalAlign=top;align=left;overflow=fill;html=1;whiteSpace=wrap;" vertex="1" parent="1">
          <mxGeometry x="-360" y="1530" width="280" height="150" as="geometry" />
        </mxCell>
        <mxCell id="fWS9ggma_vgh0mWTJByZ-185" value="&lt;p style=&quot;margin:0px;margin-top:4px;text-align:center;&quot;&gt;&lt;span style=&quot;text-align: start; font-size: 15px; background-color: rgb(253, 253, 254);&quot;&gt;&lt;font face=&quot;-apple-system, BlinkMacSystemFont, Segoe UI, Roboto, Ubuntu, Helvetica Neue, Helvetica, Arial, PingFang SC, Hiragino Sans GB, Microsoft YaHei UI, Microsoft YaHei, Source Han Sans CN, sans-serif, Apple Color Emoji, Segoe UI Emoji&quot; color=&quot;#05073b&quot;&gt;carout&lt;/font&gt;&lt;/span&gt;&lt;span style=&quot;text-wrap: nowrap; background-color: initial; color: rgba(0, 0, 0, 0); font-family: monospace; text-align: start; font-size: 0px;&quot;&gt;%3CmxGraphModel%3E%3Croot%3E%3CmxCell%20id%3D%220%22%2F%3E%3CmxCell%20id%3D%221%22%20parent%3D%220%22%2F%3E%3CmxCell%20id%3D%222%22%20value%3D%22%26amp%3Blt%3B%26amp%3Blt%3Binterface%26amp%3Bgt%3B%26amp%3Bgt%3B%26lt%3Bdiv%26gt%3B%3AorderIndex%26lt%3B%2Fdiv%26gt%3B%22%20style%3D%22rounded%3D0%3BwhiteSpace%3Dwrap%3Bhtml%3D1%3B%22%20vertex%3D%221%22%20parent%3D%221%22%3E%3CmxGeometry%20x%3D%22141.25%22%20y%3D%2260%22%20width%3D%22120%22%20height%3D%2240%22%20as%3D%22geometry%22%2F%3E%3C%2FmxCell%3E%3C%2Froot%3E%3C%2FmxGraphModel%3E&lt;/span&gt;&lt;br&gt;&lt;/p&gt;&lt;hr size=&quot;1&quot; style=&quot;border-style:solid;&quot;&gt;&lt;p style=&quot;margin:0px;margin-left:4px;&quot;&gt;&lt;span style=&quot;font-family: RY7z2Xwn7kv8BznoPx8B; font-size: medium;&quot;&gt;-&amp;nbsp; &amp;nbsp;endtime&lt;/span&gt;&lt;br&gt;&lt;/p&gt;&lt;p style=&quot;margin:0px;margin-left:4px;&quot;&gt;&lt;font size=&quot;3&quot;&gt;&lt;br&gt;&lt;/font&gt;&lt;/p&gt;&lt;hr size=&quot;1&quot; style=&quot;border-style:solid;&quot;&gt;&lt;p style=&quot;margin:0px;margin-left:4px;&quot;&gt;&lt;span style=&quot;text-align: center;&quot;&gt;&lt;font size=&quot;3&quot;&gt;+&amp;nbsp; delete(clinetID,endtime,carclassify)&lt;/font&gt;&lt;/span&gt;&lt;br&gt;&lt;/p&gt;&lt;p style=&quot;margin:0px;margin-left:4px;&quot;&gt;&lt;span style=&quot;text-align: center;&quot;&gt;&lt;font size=&quot;3&quot;&gt;&lt;br&gt;&lt;/font&gt;&lt;/span&gt;&lt;/p&gt;&lt;p style=&quot;margin:0px;margin-left:4px;&quot;&gt;&lt;span style=&quot;text-align: center;&quot;&gt;&lt;font size=&quot;3&quot;&gt;&lt;br&gt;&lt;/font&gt;&lt;/span&gt;&lt;/p&gt;" style="verticalAlign=top;align=left;overflow=fill;html=1;whiteSpace=wrap;" vertex="1" parent="1">
          <mxGeometry x="-360" y="1760" width="280" height="150" as="geometry" />
        </mxCell>
        <mxCell id="fWS9ggma_vgh0mWTJByZ-187" value="" style="endArrow=none;dashed=1;html=1;dashPattern=1 3;strokeWidth=2;rounded=0;exitX=0.5;exitY=0;exitDx=0;exitDy=0;" edge="1" parent="1" source="fWS9ggma_vgh0mWTJByZ-174">
          <mxGeometry width="50" height="50" relative="1" as="geometry">
            <mxPoint x="650" y="1540" as="sourcePoint" />
            <mxPoint x="655" y="1470" as="targetPoint" />
          </mxGeometry>
        </mxCell>
        <mxCell id="fWS9ggma_vgh0mWTJByZ-188" value="" style="endArrow=none;dashed=1;html=1;dashPattern=1 3;strokeWidth=2;rounded=0;" edge="1" parent="1">
          <mxGeometry width="50" height="50" relative="1" as="geometry">
            <mxPoint x="-220" y="1470" as="sourcePoint" />
            <mxPoint x="660" y="1470" as="targetPoint" />
          </mxGeometry>
        </mxCell>
        <mxCell id="fWS9ggma_vgh0mWTJByZ-189" value="" style="endArrow=classic;html=1;rounded=0;entryX=0.5;entryY=0;entryDx=0;entryDy=0;dashed=1;" edge="1" parent="1" target="fWS9ggma_vgh0mWTJByZ-184">
          <mxGeometry width="50" height="50" relative="1" as="geometry">
            <mxPoint x="-220" y="1470" as="sourcePoint" />
            <mxPoint x="40" y="1520" as="targetPoint" />
          </mxGeometry>
        </mxCell>
        <mxCell id="fWS9ggma_vgh0mWTJByZ-190" value="" style="endArrow=none;html=1;rounded=0;exitX=1.007;exitY=0.58;exitDx=0;exitDy=0;exitPerimeter=0;entryX=-0.008;entryY=0.221;entryDx=0;entryDy=0;entryPerimeter=0;" edge="1" parent="1" source="fWS9ggma_vgh0mWTJByZ-184" target="fWS9ggma_vgh0mWTJByZ-178">
          <mxGeometry width="50" height="50" relative="1" as="geometry">
            <mxPoint x="-20" y="1670" as="sourcePoint" />
            <mxPoint x="30" y="1620" as="targetPoint" />
          </mxGeometry>
        </mxCell>
        <mxCell id="fWS9ggma_vgh0mWTJByZ-192" value="0..*" style="edgeLabel;html=1;align=center;verticalAlign=middle;resizable=0;points=[];" vertex="1" connectable="0" parent="fWS9ggma_vgh0mWTJByZ-190">
          <mxGeometry x="-0.6167" y="-2" relative="1" as="geometry">
            <mxPoint x="1" as="offset" />
          </mxGeometry>
        </mxCell>
        <mxCell id="fWS9ggma_vgh0mWTJByZ-191" value="" style="endArrow=none;html=1;rounded=0;exitX=1;exitY=0.5;exitDx=0;exitDy=0;entryX=0;entryY=0.665;entryDx=0;entryDy=0;entryPerimeter=0;" edge="1" parent="1" source="fWS9ggma_vgh0mWTJByZ-185" target="fWS9ggma_vgh0mWTJByZ-181">
          <mxGeometry width="50" height="50" relative="1" as="geometry">
            <mxPoint x="90" y="2000" as="sourcePoint" />
            <mxPoint x="140" y="1950" as="targetPoint" />
          </mxGeometry>
        </mxCell>
        <mxCell id="fWS9ggma_vgh0mWTJByZ-193" value="0..*" style="edgeLabel;html=1;align=center;verticalAlign=middle;resizable=0;points=[];" vertex="1" connectable="0" parent="fWS9ggma_vgh0mWTJByZ-191">
          <mxGeometry x="-0.5998" y="-2" relative="1" as="geometry">
            <mxPoint x="-1" as="offset" />
          </mxGeometry>
        </mxCell>
        <mxCell id="fWS9ggma_vgh0mWTJByZ-198" value="客户" style="shape=umlActor;verticalLabelPosition=bottom;verticalAlign=top;html=1;outlineConnect=0;" vertex="1" parent="1">
          <mxGeometry x="1480" y="1620" width="30" height="60" as="geometry" />
        </mxCell>
        <mxCell id="fWS9ggma_vgh0mWTJByZ-201" value="" style="endArrow=none;dashed=1;html=1;dashPattern=1 3;strokeWidth=2;rounded=0;" edge="1" parent="1">
          <mxGeometry width="50" height="50" relative="1" as="geometry">
            <mxPoint x="1500" y="1760" as="sourcePoint" />
            <mxPoint x="1500" y="1700" as="targetPoint" />
          </mxGeometry>
        </mxCell>
        <mxCell id="fWS9ggma_vgh0mWTJByZ-202" value="" style="rounded=0;whiteSpace=wrap;html=1;rotation=90;" vertex="1" parent="1">
          <mxGeometry x="1237" y="2012" width="522" height="20" as="geometry" />
        </mxCell>
        <mxCell id="fWS9ggma_vgh0mWTJByZ-203" value="" style="endArrow=none;dashed=1;html=1;dashPattern=1 3;strokeWidth=2;rounded=0;" edge="1" parent="1">
          <mxGeometry width="50" height="50" relative="1" as="geometry">
            <mxPoint x="1500" y="2350" as="sourcePoint" />
            <mxPoint x="1500" y="2290" as="targetPoint" />
          </mxGeometry>
        </mxCell>
        <mxCell id="fWS9ggma_vgh0mWTJByZ-204" value="" style="endArrow=classic;html=1;rounded=0;entryX=0.25;entryY=1;entryDx=0;entryDy=0;" edge="1" parent="1">
          <mxGeometry width="50" height="50" relative="1" as="geometry">
            <mxPoint x="1510" y="1768" as="sourcePoint" />
            <mxPoint x="1750" y="1767.7500000000005" as="targetPoint" />
          </mxGeometry>
        </mxCell>
        <mxCell id="fWS9ggma_vgh0mWTJByZ-205" value="select an entrance" style="edgeLabel;html=1;align=center;verticalAlign=middle;resizable=0;points=[];" vertex="1" connectable="0" parent="fWS9ggma_vgh0mWTJByZ-204">
          <mxGeometry x="-0.1268" y="-2" relative="1" as="geometry">
            <mxPoint as="offset" />
          </mxGeometry>
        </mxCell>
        <mxCell id="fWS9ggma_vgh0mWTJByZ-208" value="&lt;p style=&quot;margin:0px;margin-top:4px;text-align:center;&quot;&gt;&lt;b&gt;parkpayShow&lt;/b&gt;&lt;/p&gt;&lt;hr size=&quot;1&quot; style=&quot;border-style:solid;&quot;&gt;&lt;p style=&quot;margin:0px;margin-left:4px;&quot;&gt;+&amp;nbsp;&lt;/p&gt;&lt;hr size=&quot;1&quot; style=&quot;border-style:solid;&quot;&gt;&lt;p style=&quot;margin:0px;margin-left:4px;&quot;&gt;+&amp;nbsp;&lt;/p&gt;" style="verticalAlign=top;align=left;overflow=fill;html=1;whiteSpace=wrap;" vertex="1" parent="1">
          <mxGeometry x="857.5" y="1750" width="270" height="120" as="geometry" />
        </mxCell>
        <mxCell id="fWS9ggma_vgh0mWTJByZ-209" value="" style="endArrow=classic;html=1;rounded=0;exitX=-0.002;exitY=0.67;exitDx=0;exitDy=0;exitPerimeter=0;entryX=1;entryY=0.5;entryDx=0;entryDy=0;dashed=1;" edge="1" parent="1" source="fWS9ggma_vgh0mWTJByZ-208" target="fWS9ggma_vgh0mWTJByZ-174">
          <mxGeometry width="50" height="50" relative="1" as="geometry">
            <mxPoint x="765" y="1875" as="sourcePoint" />
            <mxPoint x="815" y="1825" as="targetPoint" />
          </mxGeometry>
        </mxCell>
        <mxCell id="fWS9ggma_vgh0mWTJByZ-211" value="&amp;lt;&amp;lt;interface&amp;gt;&amp;gt;&lt;div&gt;:parkpayshow&lt;/div&gt;" style="rounded=0;whiteSpace=wrap;html=1;" vertex="1" parent="1">
          <mxGeometry x="1700" y="1650" width="120" height="40" as="geometry" />
        </mxCell>
        <mxCell id="fWS9ggma_vgh0mWTJByZ-212" value="&lt;span style=&quot;color: rgba(0, 0, 0, 0); font-family: monospace; font-size: 0px; text-align: start; text-wrap: nowrap;&quot;&gt;%3CmxGraphModel%3E%3Croot%3E%3CmxCell%20id%3D%220%22%2F%3E%3CmxCell%20id%3D%221%22%20parent%3D%220%22%2F%3E%3CmxCell%20id%3D%222%22%20value%3D%22%22%20style%3D%22endArrow%3Dnone%3Bdashed%3D1%3Bhtml%3D1%3BdashPattern%3D1%203%3BstrokeWidth%3D2%3Brounded%3D0%3B%22%20edge%3D%221%22%20parent%3D%221%22%3E%3CmxGeometry%20width%3D%2250%22%20height%3D%2250%22%20relative%3D%221%22%20as%3D%22geometry%22%3E%3CmxPoint%20x%3D%221759%22%20y%3D%221760%22%20as%3D%22sourcePoint%22%2F%3E%3CmxPoint%20x%3D%221759%22%20y%3D%221690%22%20as%3D%22targetPoint%22%2F%3E%3C%2FmxGeometry%3E%3C%2FmxCell%3E%3C%2Froot%3E%3C%2FmxGraphModel%3E&lt;/span&gt;" style="rounded=0;whiteSpace=wrap;html=1;rotation=90;" vertex="1" parent="1">
          <mxGeometry x="1657.25" y="1853.75" width="205.5" height="20" as="geometry" />
        </mxCell>
        <mxCell id="fWS9ggma_vgh0mWTJByZ-213" value="" style="endArrow=none;dashed=1;html=1;dashPattern=1 3;strokeWidth=2;rounded=0;" edge="1" parent="1">
          <mxGeometry width="50" height="50" relative="1" as="geometry">
            <mxPoint x="1759" y="1760" as="sourcePoint" />
            <mxPoint x="1759" y="1690" as="targetPoint" />
          </mxGeometry>
        </mxCell>
        <mxCell id="fWS9ggma_vgh0mWTJByZ-214" value="&amp;lt;&amp;lt;controller&amp;gt;&amp;gt;&lt;div&gt;:parkCotroller&lt;span style=&quot;color: rgba(0, 0, 0, 0); font-family: monospace; font-size: 0px; text-align: start; text-wrap: nowrap; background-color: initial;&quot;&gt;%3CmxGraphModel%3E%3Croot%3E%3CmxCell%20id%3D%220%22%2F%3E%3CmxCell%20id%3D%221%22%20parent%3D%220%22%2F%3E%3CmxCell%20id%3D%222%22%20value%3D%22%26amp%3Blt%3B%26amp%3Blt%3Binterface%26amp%3Bgt%3B%26amp%3Bgt%3B%26lt%3Bdiv%26gt%3B%3AorderIndex%26lt%3B%2Fdiv%26gt%3B%22%20style%3D%22rounded%3D0%3BwhiteSpace%3Dwrap%3Bhtml%3D1%3B%22%20vertex%3D%221%22%20parent%3D%221%22%3E%3CmxGeometry%20x%3D%22141.25%22%20y%3D%2260%22%20width%3D%22120%22%20height%3D%2240%22%20as%3D%22geometry%22%2F%3E%3C%2FmxCell%3E%3C%2Froot%3E%3C%2FmxGraphModel%3E&lt;/span&gt;&lt;/div&gt;" style="rounded=0;whiteSpace=wrap;html=1;" vertex="1" parent="1">
          <mxGeometry x="1940" y="1650" width="120" height="40" as="geometry" />
        </mxCell>
        <mxCell id="fWS9ggma_vgh0mWTJByZ-215" value="" style="endArrow=classic;html=1;rounded=0;exitX=0.188;exitY=-0.064;exitDx=0;exitDy=0;exitPerimeter=0;entryX=0.057;entryY=1.136;entryDx=0;entryDy=0;entryPerimeter=0;" edge="1" parent="1" source="fWS9ggma_vgh0mWTJByZ-212" target="fWS9ggma_vgh0mWTJByZ-219">
          <mxGeometry width="50" height="50" relative="1" as="geometry">
            <mxPoint x="1930" y="1840" as="sourcePoint" />
            <mxPoint x="1980" y="1790" as="targetPoint" />
          </mxGeometry>
        </mxCell>
        <mxCell id="fWS9ggma_vgh0mWTJByZ-220" value="Parkpayshow(cliintID)" style="edgeLabel;html=1;align=center;verticalAlign=middle;resizable=0;points=[];" vertex="1" connectable="0" parent="fWS9ggma_vgh0mWTJByZ-215">
          <mxGeometry x="-0.01" y="-2" relative="1" as="geometry">
            <mxPoint x="1" as="offset" />
          </mxGeometry>
        </mxCell>
        <mxCell id="fWS9ggma_vgh0mWTJByZ-217" value="" style="endArrow=none;dashed=1;html=1;dashPattern=1 3;strokeWidth=2;rounded=0;" edge="1" parent="1">
          <mxGeometry width="50" height="50" relative="1" as="geometry">
            <mxPoint x="1999" y="1780" as="sourcePoint" />
            <mxPoint x="1999.29" y="1690" as="targetPoint" />
          </mxGeometry>
        </mxCell>
        <mxCell id="fWS9ggma_vgh0mWTJByZ-219" value="&lt;span style=&quot;color: rgba(0, 0, 0, 0); font-family: monospace; font-size: 0px; text-align: start; text-wrap: nowrap;&quot;&gt;%3CmxGraphModel%3E%3Croot%3E%3CmxCell%20id%3D%220%22%2F%3E%3CmxCell%20id%3D%221%22%20parent%3D%220%22%2F%3E%3CmxCell%20id%3D%222%22%20value%3D%22%22%20style%3D%22endArrow%3Dnone%3Bdashed%3D1%3Bhtml%3D1%3BdashPattern%3D1%203%3BstrokeWidth%3D2%3Brounded%3D0%3B%22%20edge%3D%221%22%20parent%3D%221%22%3E%3CmxGeometry%20width%3D%2250%22%20height%3D%2250%22%20relative%3D%221%22%20as%3D%22geometry%22%3E%3CmxPoint%20x%3D%221759%22%20y%3D%221760%22%20as%3D%22sourcePoint%22%2F%3E%3CmxPoint%20x%3D%221759%22%20y%3D%221690%22%20as%3D%22targetPoint%22%2F%3E%3C%2FmxGeometry%3E%3C%2FmxCell%3E%3C%2Froot%3E%3C%2FmxGraphModel%3E&lt;/span&gt;" style="rounded=0;whiteSpace=wrap;html=1;rotation=90;" vertex="1" parent="1">
          <mxGeometry x="1748.63" y="2022.37" width="502.75" height="20" as="geometry" />
        </mxCell>
        <mxCell id="fWS9ggma_vgh0mWTJByZ-221" value="&lt;div&gt;:Park&lt;span style=&quot;color: rgba(0, 0, 0, 0); font-family: monospace; font-size: 0px; text-align: start; text-wrap: nowrap; background-color: initial;&quot;&gt;%3CmxGraphModel%3E%3Croot%3E%3CmxCell%20id%3D%220%22%2F%3E%3CmxCell%20id%3D%221%22%20parent%3D%220%22%2F%3E%3CmxCell%20id%3D%222%22%20value%3D%22%26amp%3Blt%3B%26amp%3Blt%3Binterface%26amp%3Bgt%3B%26amp%3Bgt%3B%26lt%3Bdiv%26gt%3B%3AorderIndex%26lt%3B%2Fdiv%26gt%3B%22%20style%3D%22rounded%3D0%3BwhiteSpace%3Dwrap%3Bhtml%3D1%3B%22%20vertex%3D%221%22%20parent%3D%221%22%3E%3CmxGeometry%20x%3D%22141.25%22%20y%3D%2260%22%20width%3D%22120%22%20height%3D%2240%22%20as%3D%22geometry%22%2F%3E%3C%2FmxCell%3E%3C%2Froot%3E%3C%2FmxGraphModel%3E&lt;/span&gt;&lt;/div&gt;" style="rounded=0;whiteSpace=wrap;html=1;" vertex="1" parent="1">
          <mxGeometry x="2120" y="1650" width="120" height="40" as="geometry" />
        </mxCell>
        <mxCell id="fWS9ggma_vgh0mWTJByZ-222" value="" style="endArrow=none;dashed=1;html=1;dashPattern=1 3;strokeWidth=2;rounded=0;" edge="1" parent="1">
          <mxGeometry width="50" height="50" relative="1" as="geometry">
            <mxPoint x="2180" y="1830" as="sourcePoint" />
            <mxPoint x="2179.58" y="1690" as="targetPoint" />
          </mxGeometry>
        </mxCell>
        <mxCell id="fWS9ggma_vgh0mWTJByZ-223" value="&lt;span style=&quot;color: rgba(0, 0, 0, 0); font-family: monospace; font-size: 0px; text-align: start; text-wrap: nowrap;&quot;&gt;%3CmxGraphModel%3E%3Croot%3E%3CmxCell%20id%3D%220%22%2F%3E%3CmxCell%20id%3D%221%22%20parent%3D%220%22%2F%3E%3CmxCell%20id%3D%222%22%20value%3D%22%22%20style%3D%22endArrow%3Dnone%3Bdashed%3D1%3Bhtml%3D1%3BdashPattern%3D1%203%3BstrokeWidth%3D2%3Brounded%3D0%3B%22%20edge%3D%221%22%20parent%3D%221%22%3E%3CmxGeometry%20width%3D%2250%22%20height%3D%2250%22%20relative%3D%221%22%20as%3D%22geometry%22%3E%3CmxPoint%20x%3D%221759%22%20y%3D%221760%22%20as%3D%22sourcePoint%22%2F%3E%3CmxPoint%20x%3D%221759%22%20y%3D%221690%22%20as%3D%22targetPoint%22%2F%3E%3C%2FmxGeometry%3E%3C%2FmxCell%3E%3C%2Froot%3E%3C%2FmxGraphModel%3E&lt;/span&gt;" style="rounded=0;whiteSpace=wrap;html=1;rotation=90;" vertex="1" parent="1">
          <mxGeometry x="2073.63" y="1933.62" width="212.75" height="20" as="geometry" />
        </mxCell>
        <mxCell id="fWS9ggma_vgh0mWTJByZ-224" value="" style="endArrow=classic;html=1;rounded=0;exitX=0.148;exitY=-0.007;exitDx=0;exitDy=0;exitPerimeter=0;" edge="1" parent="1" source="fWS9ggma_vgh0mWTJByZ-219">
          <mxGeometry width="50" height="50" relative="1" as="geometry">
            <mxPoint x="2070" y="1900" as="sourcePoint" />
            <mxPoint x="2170" y="1853" as="targetPoint" />
          </mxGeometry>
        </mxCell>
        <mxCell id="fWS9ggma_vgh0mWTJByZ-225" value="&lt;p style=&quot;forced-color-adjust: none; color: rgb(0, 0, 0); font-family: Helvetica; font-style: normal; font-variant-ligatures: normal; font-variant-caps: normal; font-weight: 400; letter-spacing: normal; orphans: 2; text-align: left; text-indent: 0px; text-transform: none; widows: 2; word-spacing: 0px; -webkit-text-stroke-width: 0px; white-space: normal; background-color: rgb(251, 251, 251); text-decoration-thickness: initial; text-decoration-style: initial; text-decoration-color: initial; margin: 0px 0px 0px 4px;&quot;&gt;&lt;font style=&quot;forced-color-adjust: none; font-size: 11px;&quot; face=&quot;RY7z2Xwn7kv8BznoPx8B&quot;&gt;&lt;span style=&quot;forced-color-adjust: none; text-align: center; background-color: initial;&quot;&gt;&amp;nbsp;whetherpay(clinetID&lt;span style=&quot;font-size: 12px;&quot;&gt;)&lt;/span&gt;&lt;/span&gt;&lt;/font&gt;&lt;/p&gt;&lt;br class=&quot;Apple-interchange-newline&quot;&gt;&lt;div&gt;&lt;br&gt;&lt;/div&gt;" style="edgeLabel;html=1;align=center;verticalAlign=middle;resizable=0;points=[];" vertex="1" connectable="0" parent="fWS9ggma_vgh0mWTJByZ-224">
          <mxGeometry x="-0.1431" y="-2" relative="1" as="geometry">
            <mxPoint x="-1" as="offset" />
          </mxGeometry>
        </mxCell>
        <mxCell id="fWS9ggma_vgh0mWTJByZ-226" value="" style="endArrow=classic;html=1;rounded=0;exitX=0.25;exitY=1;exitDx=0;exitDy=0;dashed=1;" edge="1" parent="1" source="fWS9ggma_vgh0mWTJByZ-223">
          <mxGeometry width="50" height="50" relative="1" as="geometry">
            <mxPoint x="2140" y="1990" as="sourcePoint" />
            <mxPoint x="2020" y="1889" as="targetPoint" />
          </mxGeometry>
        </mxCell>
        <mxCell id="fWS9ggma_vgh0mWTJByZ-227" value="if pay" style="edgeLabel;html=1;align=center;verticalAlign=middle;resizable=0;points=[];" vertex="1" connectable="0" parent="fWS9ggma_vgh0mWTJByZ-226">
          <mxGeometry x="0.1756" y="-2" relative="1" as="geometry">
            <mxPoint as="offset" />
          </mxGeometry>
        </mxCell>
        <mxCell id="fWS9ggma_vgh0mWTJByZ-228" value="&lt;div&gt;:carout&lt;span style=&quot;color: rgba(0, 0, 0, 0); font-family: monospace; font-size: 0px; text-align: start; text-wrap: nowrap; background-color: initial;&quot;&gt;%3CmxGraphModel%3E%3Croot%3E%3CmxCell%20id%3D%220%22%2F%3E%3CmxCell%20id%3D%221%22%20parent%3D%220%22%2F%3E%3CmxCell%20id%3D%222%22%20value%3D%22%26amp%3Blt%3B%26amp%3Blt%3Binterface%26amp%3Bgt%3B%26amp%3Bgt%3B%26lt%3Bdiv%26gt%3B%3AorderIndex%26lt%3B%2Fdiv%26gt%3B%22%20style%3D%22rounded%3D0%3BwhiteSpace%3Dwrap%3Bhtml%3D1%3B%22%20vertex%3D%221%22%20parent%3D%221%22%3E%3CmxGeometry%20x%3D%22141.25%22%20y%3D%2260%22%20width%3D%22120%22%20height%3D%2240%22%20as%3D%22geometry%22%2F%3E%3C%2FmxCell%3E%3C%2Froot%3E%3C%2FmxGraphModel%3E&lt;/span&gt;&lt;/div&gt;" style="rounded=0;whiteSpace=wrap;html=1;" vertex="1" parent="1">
          <mxGeometry x="2330" y="1650" width="120" height="40" as="geometry" />
        </mxCell>
        <mxCell id="fWS9ggma_vgh0mWTJByZ-229" value="" style="endArrow=none;dashed=1;html=1;dashPattern=1 3;strokeWidth=2;rounded=0;" edge="1" parent="1">
          <mxGeometry width="50" height="50" relative="1" as="geometry">
            <mxPoint x="2390" y="1910" as="sourcePoint" />
            <mxPoint x="2389.58" y="1690" as="targetPoint" />
          </mxGeometry>
        </mxCell>
        <mxCell id="fWS9ggma_vgh0mWTJByZ-230" value="&lt;span style=&quot;color: rgba(0, 0, 0, 0); font-family: monospace; font-size: 0px; text-align: start; text-wrap: nowrap;&quot;&gt;%3CmxGraphModel%3E%3Croot%3E%3CmxCell%20id%3D%220%22%2F%3E%3CmxCell%20id%3D%221%22%20parent%3D%220%22%2F%3E%3CmxCell%20id%3D%222%22%20value%3D%22%22%20style%3D%22endArrow%3Dnone%3Bdashed%3D1%3Bhtml%3D1%3BdashPattern%3D1%203%3BstrokeWidth%3D2%3Brounded%3D0%3B%22%20edge%3D%221%22%20parent%3D%221%22%3E%3CmxGeometry%20width%3D%2250%22%20height%3D%2250%22%20relative%3D%221%22%20as%3D%22geometry%22%3E%3CmxPoint%20x%3D%221759%22%20y%3D%221760%22%20as%3D%22sourcePoint%22%2F%3E%3CmxPoint%20x%3D%221759%22%20y%3D%221690%22%20as%3D%22targetPoint%22%2F%3E%3C%2FmxGeometry%3E%3C%2FmxCell%3E%3C%2Froot%3E%3C%2FmxGraphModel%3E&lt;/span&gt;" style="rounded=0;whiteSpace=wrap;html=1;rotation=90;" vertex="1" parent="1">
          <mxGeometry x="2288.63" y="1998.62" width="202.75" height="20" as="geometry" />
        </mxCell>
        <mxCell id="fWS9ggma_vgh0mWTJByZ-231" style="edgeStyle=orthogonalEdgeStyle;rounded=0;orthogonalLoop=1;jettySize=auto;html=1;exitX=0.75;exitY=1;exitDx=0;exitDy=0;entryX=0.748;entryY=0.5;entryDx=0;entryDy=0;entryPerimeter=0;" edge="1" parent="1" source="fWS9ggma_vgh0mWTJByZ-212" target="fWS9ggma_vgh0mWTJByZ-212">
          <mxGeometry relative="1" as="geometry" />
        </mxCell>
        <mxCell id="fWS9ggma_vgh0mWTJByZ-232" style="edgeStyle=orthogonalEdgeStyle;rounded=0;orthogonalLoop=1;jettySize=auto;html=1;exitX=0.75;exitY=1;exitDx=0;exitDy=0;entryX=0.748;entryY=0.5;entryDx=0;entryDy=0;entryPerimeter=0;" edge="1" parent="1">
          <mxGeometry relative="1" as="geometry">
            <mxPoint x="1760" y="1925" as="sourcePoint" />
            <mxPoint x="1770" y="1925" as="targetPoint" />
          </mxGeometry>
        </mxCell>
        <mxCell id="fWS9ggma_vgh0mWTJByZ-233" value="&lt;span style=&quot;color: rgba(0, 0, 0, 0); font-family: monospace; font-size: 0px; text-align: start; text-wrap: nowrap;&quot;&gt;%3CmxGraphModel%3E%3Croot%3E%3CmxCell%20id%3D%220%22%2F%3E%3CmxCell%20id%3D%221%22%20parent%3D%220%22%2F%3E%3CmxCell%20id%3D%222%22%20value%3D%22%22%20style%3D%22endArrow%3Dnone%3Bdashed%3D1%3Bhtml%3D1%3BdashPattern%3D1%203%3BstrokeWidth%3D2%3Brounded%3D0%3B%22%20edge%3D%221%22%20parent%3D%221%22%3E%3CmxGeometry%20width%3D%2250%22%20height%3D%2250%22%20relative%3D%221%22%20as%3D%22geometry%22%3E%3CmxPoint%20x%3D%221759%22%20y%3D%221760%22%20as%3D%22sourcePoint%22%2F%3E%3CmxPoint%20x%3D%221759%22%20y%3D%221690%22%20as%3D%22targetPoint%22%2F%3E%3C%2FmxGeometry%3E%3C%2FmxCell%3E%3C%2Froot%3E%3C%2FmxGraphModel%3E&lt;/span&gt;" style="rounded=0;whiteSpace=wrap;html=1;rotation=90;" vertex="1" parent="1">
          <mxGeometry x="1657.25" y="2120" width="205.5" height="20" as="geometry" />
        </mxCell>
        <mxCell id="fWS9ggma_vgh0mWTJByZ-234" value="" style="endArrow=classic;html=1;rounded=0;exitX=0.853;exitY=1;exitDx=0;exitDy=0;exitPerimeter=0;entryX=0.872;entryY=-0.007;entryDx=0;entryDy=0;entryPerimeter=0;dashed=1;" edge="1" parent="1" source="fWS9ggma_vgh0mWTJByZ-219" target="fWS9ggma_vgh0mWTJByZ-233">
          <mxGeometry width="50" height="50" relative="1" as="geometry">
            <mxPoint x="1890" y="2170" as="sourcePoint" />
            <mxPoint x="1940" y="2120" as="targetPoint" />
          </mxGeometry>
        </mxCell>
        <mxCell id="fWS9ggma_vgh0mWTJByZ-235" value="Car pay message" style="edgeLabel;html=1;align=center;verticalAlign=middle;resizable=0;points=[];" vertex="1" connectable="0" parent="fWS9ggma_vgh0mWTJByZ-234">
          <mxGeometry x="0.1472" y="2" relative="1" as="geometry">
            <mxPoint as="offset" />
          </mxGeometry>
        </mxCell>
        <mxCell id="fWS9ggma_vgh0mWTJByZ-236" value="" style="endArrow=none;dashed=1;html=1;dashPattern=1 3;strokeWidth=2;rounded=0;exitX=0;exitY=0.5;exitDx=0;exitDy=0;" edge="1" parent="1" source="fWS9ggma_vgh0mWTJByZ-233">
          <mxGeometry width="50" height="50" relative="1" as="geometry">
            <mxPoint x="1640" y="2050" as="sourcePoint" />
            <mxPoint x="1760" y="1970" as="targetPoint" />
          </mxGeometry>
        </mxCell>
        <mxCell id="fWS9ggma_vgh0mWTJByZ-237" value="" style="endArrow=none;dashed=1;html=1;dashPattern=1 3;strokeWidth=2;rounded=0;" edge="1" parent="1">
          <mxGeometry width="50" height="50" relative="1" as="geometry">
            <mxPoint x="1760" y="2350" as="sourcePoint" />
            <mxPoint x="1760" y="2240" as="targetPoint" />
          </mxGeometry>
        </mxCell>
        <mxCell id="fWS9ggma_vgh0mWTJByZ-239" value="" style="endArrow=none;dashed=1;html=1;dashPattern=1 3;strokeWidth=2;rounded=0;exitX=0;exitY=0.5;exitDx=0;exitDy=0;" edge="1" parent="1">
          <mxGeometry width="50" height="50" relative="1" as="geometry">
            <mxPoint x="1999.29" y="2347" as="sourcePoint" />
            <mxPoint x="1999.29" y="2290" as="targetPoint" />
          </mxGeometry>
        </mxCell>
        <mxCell id="fWS9ggma_vgh0mWTJByZ-240" value="" style="endArrow=none;dashed=1;html=1;dashPattern=1 3;strokeWidth=2;rounded=0;" edge="1" parent="1">
          <mxGeometry width="50" height="50" relative="1" as="geometry">
            <mxPoint x="2180" y="2370" as="sourcePoint" />
            <mxPoint x="2180" y="2050" as="targetPoint" />
          </mxGeometry>
        </mxCell>
        <mxCell id="fWS9ggma_vgh0mWTJByZ-241" value="" style="endArrow=none;dashed=1;html=1;dashPattern=1 3;strokeWidth=2;rounded=0;" edge="1" parent="1">
          <mxGeometry width="50" height="50" relative="1" as="geometry">
            <mxPoint x="2390" y="2370" as="sourcePoint" />
            <mxPoint x="2390" y="2120" as="targetPoint" />
          </mxGeometry>
        </mxCell>
        <mxCell id="fWS9ggma_vgh0mWTJByZ-242" value="" style="endArrow=classic;html=1;rounded=0;exitX=0.5;exitY=0;exitDx=0;exitDy=0;" edge="1" parent="1" source="fWS9ggma_vgh0mWTJByZ-223">
          <mxGeometry width="50" height="50" relative="1" as="geometry">
            <mxPoint x="2290" y="2010" as="sourcePoint" />
            <mxPoint x="2380" y="1940" as="targetPoint" />
          </mxGeometry>
        </mxCell>
        <mxCell id="fWS9ggma_vgh0mWTJByZ-243" value="deletetime" style="edgeLabel;html=1;align=center;verticalAlign=middle;resizable=0;points=[];" vertex="1" connectable="0" parent="fWS9ggma_vgh0mWTJByZ-242">
          <mxGeometry x="-0.1023" y="4" relative="1" as="geometry">
            <mxPoint as="offset" />
          </mxGeometry>
        </mxCell>
        <mxCell id="fWS9ggma_vgh0mWTJByZ-244" value="" style="endArrow=classic;html=1;rounded=0;exitX=0.5;exitY=0;exitDx=0;exitDy=0;" edge="1" parent="1">
          <mxGeometry width="50" height="50" relative="1" as="geometry">
            <mxPoint x="2190" y="1960" as="sourcePoint" />
            <mxPoint x="2380" y="1960" as="targetPoint" />
          </mxGeometry>
        </mxCell>
        <mxCell id="fWS9ggma_vgh0mWTJByZ-246" value="calculatemoney" style="edgeLabel;html=1;align=center;verticalAlign=middle;resizable=0;points=[];" vertex="1" connectable="0" parent="fWS9ggma_vgh0mWTJByZ-244">
          <mxGeometry x="-0.0782" y="7" relative="1" as="geometry">
            <mxPoint as="offset" />
          </mxGeometry>
        </mxCell>
        <mxCell id="fWS9ggma_vgh0mWTJByZ-247" value="" style="endArrow=classic;html=1;rounded=0;entryX=0.934;entryY=-0.15;entryDx=0;entryDy=0;entryPerimeter=0;dashed=1;" edge="1" parent="1" target="fWS9ggma_vgh0mWTJByZ-223">
          <mxGeometry width="50" height="50" relative="1" as="geometry">
            <mxPoint x="2380" y="2030" as="sourcePoint" />
            <mxPoint x="2280" y="2000" as="targetPoint" />
          </mxGeometry>
        </mxCell>
        <mxCell id="fWS9ggma_vgh0mWTJByZ-248" value="pay message" style="edgeLabel;html=1;align=center;verticalAlign=middle;resizable=0;points=[];" vertex="1" connectable="0" parent="fWS9ggma_vgh0mWTJByZ-247">
          <mxGeometry x="0.1261" y="-1" relative="1" as="geometry">
            <mxPoint as="offset" />
          </mxGeometry>
        </mxCell>
        <mxCell id="fWS9ggma_vgh0mWTJByZ-250" value="loop" style="text;html=1;align=center;verticalAlign=middle;whiteSpace=wrap;rounded=0;" vertex="1" parent="1">
          <mxGeometry x="2110" y="1940" width="60" height="30" as="geometry" />
        </mxCell>
      </root>
    </mxGraphModel>
  </diagram>
</mxfile>
